<svg width="82" height="126" viewBox="0 0 82 126" fill="none" xmlns="http://www.w3.org/2000/svg">
<path d="M31.2613 18.6326C31.1299 18.5808 26.0388 17.228 26.3453 22.4435C26.6519 27.6589 31.7576 26.2691 31.7613 26.1176C31.7649 25.966 31.2613 18.6326 31.2613 18.6326Z" fill="#018762"/>
<path d="M30.0735 24.2366C30.048 24.2182 29.9859 24.3032 29.8399 24.3845C29.6314 24.4901 29.3903 24.5087 29.1684 24.4362C28.6137 24.2699 28.1028 23.4235 28.0225 22.4846C27.9826 22.0455 28.0374 21.6028 28.1831 21.1872C28.2216 21.021 28.2995 20.8668 28.4102 20.7379C28.5208 20.6091 28.6609 20.5096 28.8181 20.448C28.9196 20.414 29.0296 20.4173 29.129 20.4571C29.2284 20.497 29.3108 20.5709 29.3619 20.666C29.4385 20.8065 29.413 20.9137 29.4385 20.9211C29.464 20.9285 29.5443 20.825 29.4896 20.6143C29.4544 20.4862 29.3755 20.3749 29.267 20.3001C29.194 20.2498 29.1119 20.2148 29.0254 20.197C28.939 20.1793 28.8499 20.1791 28.7633 20.1966C28.5548 20.2518 28.3637 20.3604 28.2084 20.5118C28.0531 20.6632 27.9389 20.8525 27.8765 21.0615C27.6806 21.5276 27.6028 22.0358 27.6502 22.54C27.7451 23.5898 28.3363 24.5397 29.0918 24.7135C29.2327 24.7459 29.379 24.7458 29.5199 24.7131C29.6608 24.6805 29.7926 24.6162 29.9056 24.5249C30.0699 24.3623 30.0918 24.244 30.0735 24.2366Z" fill="#018762"/>
<path d="M44.1172 0.00390625C46.7339 0.00390625 49.3981 0.00390431 52.6718 1.73746C54.7374 2.84634 56.0221 4.55772 57.0987 6.64981C57.9574 8.3507 58.3768 10.2442 58.3177 12.1536C58.2228 13.9573 58.2155 15.2178 57.5038 16.8737" fill="#018762"/>
<path d="M43.0679 0.410522C44.9072 0.277793 46.754 0.517862 48.5006 1.11669C50.2471 1.71551 51.8582 2.66106 53.2396 3.89804C54.621 5.13501 55.7449 6.63856 56.5457 8.32074C57.3465 10.0029 57.8081 11.8299 57.9034 13.6949C58.2391 20.2263 58.5348 27.2899 58.4654 30.8457C58.3121 38.4822 50.7612 39.6095 50.7612 39.6095C50.7612 39.6095 50.9291 41.8717 51.1261 44.6808C51.214 46.0228 51.0352 47.369 50.6005 48.6398C50.1658 49.9106 49.4839 51.0803 48.5952 52.0796C47.7065 53.0789 46.629 53.8877 45.4264 54.458C44.2238 55.0283 42.9205 55.3486 41.5935 55.4C40.2897 55.4505 38.9888 55.2401 37.7653 54.7809C36.5418 54.3218 35.4197 53.6228 34.4632 52.7241C33.5067 51.8253 32.7344 50.7444 32.1907 49.5431C31.647 48.3418 31.3424 47.0438 31.2944 45.7232L30.174 14.948C30.0375 11.3006 31.3082 7.74257 33.717 5.02763C36.1258 2.3127 39.4835 0.654087 43.0789 0.403127L43.0679 0.410522Z" fill="#018762"/>
<path d="M50.7651 39.6136C50.7651 39.6136 46.1301 39.8576 41.0938 36.5938C41.0938 36.5938 43.3747 42.1382 50.9001 41.5246L50.7651 39.6136Z" fill="#018762"/>
<path d="M55.0137 17.9459C55.0195 18.2329 54.9131 18.5106 54.7175 18.7183C54.522 18.9261 54.2532 19.0471 53.9699 19.0548C53.8334 19.0643 53.6964 19.0461 53.567 19.0011C53.4376 18.9562 53.3184 18.8855 53.2163 18.7932C53.1143 18.7009 53.0315 18.5888 52.9729 18.4636C52.9143 18.3384 52.881 18.2026 52.875 18.0642C52.8747 17.7789 52.983 17.5044 53.1774 17.2979C53.3718 17.0913 53.6373 16.9686 53.9188 16.9553C54.0552 16.9463 54.1919 16.9649 54.3211 17.0101C54.4503 17.0552 54.5694 17.1259 54.6713 17.2181C54.7732 17.3103 54.856 17.4222 54.9148 17.5472C54.9736 17.6721 55.0072 17.8077 55.0137 17.9459Z" fill="#018762"/>
<path d="M56.0637 16.3996C55.9287 16.54 55.1184 15.9227 53.9579 15.9153C52.7973 15.908 51.9469 16.492 51.8229 16.3478C51.7608 16.2813 51.8995 16.0262 52.2718 15.7564C52.7749 15.407 53.3735 15.2261 53.9834 15.2389C54.5857 15.2394 55.1718 15.4364 55.6549 15.8008C56.0089 16.078 56.1294 16.3367 56.0637 16.3996Z" fill="#018762"/>
<path d="M43.654 17.9457C43.6599 18.2333 43.5529 18.5115 43.3566 18.7194C43.1603 18.9273 42.8905 19.0478 42.6066 19.0546C42.4702 19.0636 42.3334 19.045 42.2042 18.9998C42.075 18.9547 41.956 18.884 41.8541 18.7918C41.7522 18.6996 41.6694 18.5877 41.6106 18.4628C41.5518 18.3378 41.5182 18.2022 41.5117 18.064C41.5115 17.778 41.6203 17.503 41.8155 17.2964C42.0106 17.0898 42.2771 16.9675 42.5592 16.9551C42.6954 16.9466 42.832 16.9656 42.961 17.0109C43.09 17.0562 43.2088 17.127 43.3106 17.2191C43.4124 17.3112 43.4952 17.4228 43.5542 17.5476C43.6131 17.6723 43.647 17.8076 43.654 17.9457Z" fill="#018762"/>
<path d="M44.6715 16.532C44.5365 16.6724 43.7226 16.0551 42.5657 16.0477C41.4089 16.0404 40.5549 16.6207 40.4271 16.4765C40.3687 16.4137 40.5038 16.1549 40.8797 15.8851C41.3838 15.5378 41.9817 15.357 42.5913 15.3676C43.193 15.3718 43.778 15.5684 44.2628 15.9295C44.6058 16.2104 44.7372 16.4654 44.6715 16.532Z" fill="#018762"/>
<path d="M48.8057 25.2498C48.8057 25.1832 49.5356 25.0649 50.6888 24.9208C50.9844 24.8912 51.2655 24.8358 51.3165 24.6325C51.346 24.3228 51.2797 24.0115 51.1268 23.7417C50.8567 23.0024 50.5684 22.2632 50.2691 21.4537C49.0794 18.1936 48.2218 15.5175 48.3531 15.4694C48.4845 15.4214 49.5538 18.0235 50.7399 21.2837C51.0282 22.0858 51.3019 22.8509 51.5611 23.5864C51.7445 23.9487 51.7962 24.3648 51.707 24.7619C51.662 24.867 51.5944 24.9607 51.5092 25.0362C51.424 25.1116 51.3233 25.1669 51.2143 25.198C51.0507 25.2391 50.883 25.2615 50.7144 25.2645C49.5392 25.3274 48.8093 25.3274 48.8057 25.2498Z" fill="#018762"/>
<path d="M45.3896 26.047C45.5794 26.047 45.5684 27.3111 46.6378 28.2241C47.7071 29.1371 49.0501 29.0077 49.0574 29.1851C49.0574 29.2665 48.7545 29.4328 48.1888 29.4439C47.4512 29.4453 46.7367 29.1836 46.1706 28.7046C45.6282 28.2447 45.2818 27.5907 45.2035 26.8787C45.1597 26.3612 45.302 26.0396 45.3896 26.047Z" fill="#018762"/>
<path d="M45.0049 11.9465C44.8881 12.2643 43.7348 12.1054 42.3735 12.2607C41.0122 12.4159 39.91 12.7818 39.7312 12.4935C39.6546 12.3568 39.848 12.0574 40.2932 11.7543C40.8876 11.3814 41.5579 11.1504 42.2534 11.0787C42.9489 11.007 43.6514 11.0964 44.3078 11.3403C44.8078 11.5288 45.0559 11.7801 45.0049 11.9465Z" fill="#018762"/>
<path d="M55.8959 12.2251C55.6915 12.4912 54.8959 12.2066 53.936 12.1881C52.9762 12.1696 52.1623 12.3508 51.9762 12.0699C51.8959 11.9331 52.0237 11.667 52.3813 11.4193C52.8609 11.1199 53.4176 10.972 53.9805 10.9944C54.5434 11.0168 55.0869 11.2085 55.5419 11.545C55.8776 11.8222 55.9871 12.0957 55.8959 12.2251Z" fill="#018762"/>
<path d="M30.2506 17.3424C30.2506 17.3424 30.579 19.1092 30.6666 19.9039C30.6995 20.1959 30.6666 23.4302 31.4367 23.6002C32.1045 23.7407 33.4293 23.1234 34.0206 21.7853C34.6118 20.4473 35.7358 17.2352 35.6118 15.7752C35.4475 13.7866 35.3563 11.761 35.7504 9.80199C36.1446 7.84296 37.0679 5.93568 38.619 4.70112C40.1701 3.46656 42.4145 3.04149 44.1809 3.93599C45.2758 4.49043 46.0823 5.46995 47.1006 6.15376C48.0037 6.80168 49.1098 7.09226 50.21 6.97063C50.7558 6.90121 51.2712 6.67701 51.6967 6.32388C52.1222 5.97074 52.4406 5.50303 52.6151 4.97465C52.9362 3.81032 52.345 2.5351 51.4216 1.76258C50.4983 0.990056 49.3122 0.635215 48.137 0.398653C44.875 -0.310787 41.4813 -0.0698542 38.3489 1.09355C35.2577 2.30963 32.5096 4.64568 31.1958 7.72468C29.6703 11.2842 29.8455 13.4687 30.2506 17.335" fill="#018762"/>
<path d="M47.4845 17.9886C47.4483 17.5655 47.3824 17.1455 47.2874 16.7319C46.995 15.6089 46.3382 14.6181 45.4225 13.919C44.7962 13.4392 44.0674 13.1151 43.2948 12.9728C42.4075 12.8085 41.493 12.8863 40.6452 13.1982C40.1887 13.3632 39.7603 13.5988 39.3751 13.8968C38.9638 14.1964 38.6038 14.5622 38.3095 14.9798C37.6765 15.8527 37.3352 16.9075 37.3352 17.9905C37.3352 19.0735 37.6765 20.1282 38.3095 21.0011C38.6058 21.417 38.9655 21.7826 39.3751 22.0841C39.7604 22.381 40.1888 22.6154 40.6452 22.779C41.4927 23.0919 42.4071 23.171 43.2948 23.0082C44.0679 22.8653 44.7968 22.5398 45.4225 22.0582C46.3389 21.3606 46.997 20.3712 47.2911 19.249C47.3842 18.8339 47.4488 18.4128 47.4845 17.9886C47.4899 18.0167 47.4899 18.0456 47.4845 18.0736V18.3213C47.4862 18.4563 47.4752 18.5912 47.4516 18.7242C47.4343 18.9063 47.4026 19.0868 47.3568 19.2638C47.0852 20.4195 46.4292 21.4453 45.4991 22.1691C44.8102 22.7067 43.9986 23.0596 43.1393 23.1953C42.2801 23.331 41.4009 23.245 40.5831 22.9453C40.1087 22.7787 39.663 22.538 39.262 22.2319C38.8412 21.9235 38.4716 21.5492 38.1671 21.1231C37.508 20.2185 37.1523 19.1239 37.1523 17.9997C37.1523 16.8755 37.508 15.7809 38.1671 14.8763C38.7792 14.0322 39.6234 13.3894 40.5941 13.0282C41.4701 12.7115 42.4135 12.6362 43.3276 12.8101C44.1249 12.9635 44.8752 13.3055 45.5174 13.8081C46.4468 14.531 47.1026 15.5554 47.375 16.7097C47.4209 16.888 47.4526 17.0697 47.4699 17.2531C47.4935 17.3847 47.5045 17.5184 47.5027 17.6523V17.8999C47.4918 17.9627 47.4881 17.9886 47.4845 17.9886Z" fill="#018762"/>
<path d="M60.7602 17.9924C60.7217 17.5696 60.6558 17.1498 60.5631 16.7357C60.2698 15.6121 59.6116 14.6213 58.6946 13.9228C58.0686 13.4424 57.3397 13.1182 56.5668 12.9766C55.6808 12.8123 54.7674 12.8901 53.9209 13.202C52.9864 13.5506 52.1741 14.1703 51.5852 14.9836C50.95 15.8556 50.6073 16.9107 50.6073 17.9943C50.6073 19.0778 50.95 20.1329 51.5852 21.0049C51.8802 21.4207 52.2387 21.7863 52.6472 22.0879C53.0333 22.3856 53.4631 22.62 53.9209 22.7828C54.7671 23.0958 55.6804 23.1749 56.5668 23.0119C57.3399 22.869 58.0689 22.5436 58.6946 22.062C59.6109 21.3644 60.2691 20.375 60.5631 19.2528C60.656 18.8375 60.7219 18.4165 60.7602 17.9924C60.7618 18.0207 60.7618 18.0491 60.7602 18.0774C60.7602 18.1439 60.7602 18.2253 60.7602 18.3251C60.7616 18.46 60.7518 18.5947 60.731 18.728C60.7123 18.9102 60.6794 19.0907 60.6325 19.2676C60.3637 20.4245 59.7072 21.4512 58.7749 22.1729C58.1327 22.6748 57.3823 23.0156 56.5851 23.1672C55.6699 23.3449 54.7244 23.2695 53.8479 22.9491C52.8757 22.5927 52.0315 21.9488 51.4246 21.101C50.7633 20.1974 50.4062 19.1024 50.4062 17.9776C50.4062 16.8528 50.7633 15.7579 51.4246 14.8543C51.7287 14.4277 52.0983 14.0533 52.5195 13.7454C52.9212 13.4396 53.3667 13.1977 53.8406 13.0283C54.7178 12.7114 55.6624 12.6362 56.5778 12.8102C57.3753 12.9631 58.1257 13.3051 58.7675 13.8082C59.699 14.5292 60.3553 15.5544 60.6252 16.7098C60.6721 16.888 60.7051 17.0697 60.7237 17.2531C60.7445 17.3851 60.7543 17.5187 60.7529 17.6523C60.7529 17.7521 60.7529 17.8335 60.7529 17.9C60.7574 17.9306 60.7599 17.9615 60.7602 17.9924Z" fill="#018762"/>
<path d="M50.6345 17.438C50.6345 17.4675 50.4483 17.3714 50.16 17.2753C49.7832 17.147 49.3853 17.0942 48.9885 17.1201C48.5961 17.1496 48.2126 17.2524 47.8571 17.4232C47.5834 17.56 47.4301 17.6782 47.4119 17.6524C47.3936 17.6265 47.5214 17.4786 47.7768 17.3049C48.1365 17.0854 48.5427 16.9561 48.9617 16.9278C49.3807 16.8995 49.8003 16.973 50.1856 17.1423C50.5031 17.2827 50.6491 17.4232 50.6345 17.438Z" fill="#018762"/>
<path d="M52.6857 4.5541C52.7623 4.15859 52.6309 3.93682 52.8536 3.77418C53.0762 3.61154 53.5835 4.07728 53.7514 4.26948C53.8098 4.33232 53.985 4.08837 54.0543 4.04401C54.1303 3.88552 54.1749 3.71348 54.1857 3.53762C54.1528 3.2604 53.7258 3.16799 53.5251 2.99796C53.3179 2.81363 53.0757 2.67403 52.8134 2.58767C52.7065 2.53412 52.5877 2.50971 52.4687 2.51684C52.3496 2.52397 52.2345 2.56239 52.1346 2.62833C52.0753 2.69929 52.0311 2.78186 52.0047 2.8709C51.9784 2.95993 51.9704 3.05352 51.9813 3.14581C51.9802 3.33073 52.015 3.51407 52.0835 3.68547C52.1522 3.85791 52.2825 3.9978 52.4485 4.07728" fill="#018762"/>
<path d="M29.9688 13.2844C29.9688 13.2844 33.6658 14.6557 35.5891 15.4837L35.4796 13.569L30.1039 11.4141C30.1039 11.4141 29.9652 12.8371 29.9688 13.2844Z" fill="#018762"/>
<path d="M30.3164 10.3086C31.2098 10.5888 32.0839 10.9284 32.9331 11.3251C33.8106 11.6637 34.6641 12.0626 35.4878 12.519C34.5945 12.2388 33.7204 11.8992 32.8711 11.5025C31.9937 11.1639 31.1401 10.765 30.3164 10.3086Z" fill="#018762"/>
<path d="M31.43 50.6416L31.1453 41.582C31.1453 41.582 32.9226 49.8728 42.2327 49.7656C51.1266 49.6621 50.9661 42.4617 50.9661 42.4617L51.2836 46.1137V60.8655L45.4808 84.932L38.0685 85.8708L29.8789 52.974L31.43 50.6416Z" fill="#018762"/>
<path d="M50.1376 47.7449C50.1101 47.813 50.0745 47.8776 50.0318 47.9371C49.9204 48.1192 49.7986 48.2945 49.6669 48.462C49.1988 49.0857 48.6401 49.634 48.0099 50.0884C47.0748 50.7662 46.0263 51.2672 44.9151 51.5669C43.5539 51.9368 42.1348 52.036 40.7363 51.8589C39.3436 51.6646 37.9892 51.2519 36.7218 50.6354C35.6933 50.137 34.7154 49.5378 33.8022 48.8464C33.1843 48.3873 32.5922 47.8937 32.0285 47.3679C31.8277 47.1831 31.6818 47.0279 31.5796 46.9244C31.5251 46.8758 31.4762 46.8212 31.4336 46.7617C31.4955 46.8009 31.553 46.8467 31.6051 46.8985L32.0796 47.3125C32.4883 47.6821 33.0941 48.1737 33.8825 48.7466C34.8003 49.4163 35.7777 49.9979 36.8021 50.4839C38.0546 51.0822 39.3899 51.4836 40.7619 51.6741C42.135 51.8486 43.5284 51.7571 44.8677 51.4043C45.9624 51.1164 46.9996 50.6387 47.9333 49.9923C48.5604 49.5535 49.1242 49.0285 49.6085 48.4324C49.9588 47.9889 50.1231 47.7338 50.1376 47.7449Z" fill="#018762"/>
<path d="M43.6785 125.093L43.5435 82.3269L31.551 51.1266L31.1496 41.7344L23.8504 47.3305C23.8504 47.3305 13.2192 84.3931 13.0404 83.1142C12.8616 81.8353 13.0404 125.093 13.0404 125.093H43.6785Z" fill="#018762"/>
<path d="M43.3912 124.977C43.3404 124.977 43.2969 115.34 43.2969 103.453C43.2969 91.5659 43.3404 81.9297 43.3912 81.9297C43.4419 81.9297 43.4854 91.5659 43.4854 103.453C43.4854 115.34 43.4419 124.977 43.3912 124.977Z" fill="#018762"/>
<path d="M23.9492 53.4219L25.4309 54.5603L24.3908 61.4798L41.8942 80.0499L25.9966 58.9035L27.3506 53.4219H23.9492Z" fill="#018762"/>
<path d="M44.3358 103.186L17.4713 95.2091L16.5809 74.5432L23.9493 47.3164C23.9493 47.3164 6.38764 56.1912 5.19058 61.8465C3.99353 67.5018 1.11403 81.2224 0.811112 91.1469C0.537395 100.018 0.497249 105.932 2.49721 108.782C8.22702 116.891 45.9781 118.34 61.058 108.782" fill="#018762"/>
<path d="M42.2342 80.4954C42.2342 80.4954 42.2013 80.4658 42.1466 80.3956C42.0919 80.3253 42.0043 80.2182 41.9057 80.0925L40.9933 78.9097C40.1977 77.8673 39.0627 76.374 37.6649 74.5333L26.7418 60.0549L25.9206 58.9461L25.8914 58.9091V58.8647C26.3586 56.9722 26.8148 55.1352 27.2491 53.3832L27.3366 53.5014H23.9352H23.8477V53.4127C23.8477 51.195 23.8477 49.125 23.8477 47.3065V47.2695L23.8769 47.2473L29.1578 43.1814L30.6176 42.0725L30.9826 41.7879C31.024 41.7532 31.0693 41.7234 31.1176 41.6992L30.9972 41.8064L30.6322 42.1058L29.2052 43.2369L23.9644 47.3545L23.9936 47.2954C23.9936 49.114 23.9936 51.1654 23.9936 53.4016L23.9061 53.3166H27.3075H27.4534L27.4242 53.4349L26.0739 58.9165L26.0557 58.8352L26.8804 59.9256L37.7562 74.4409L41.0408 78.8505C41.4057 79.368 41.7159 79.7709 41.924 80.0555C42.0189 80.1886 42.0918 80.2958 42.1502 80.3734L42.2342 80.4954Z" fill="#018762"/>
<path d="M54.2067 45.7011C52.0644 41.9087 50.9513 42.3006 50.9513 42.3006L51.0645 43.6534V46.4958L50.0462 58.6935L43.5391 85.1921L43.6741 125.09H68.2758L71.3377 76.3876L71.0604 55.4038L54.2067 45.7011Z" fill="#018762"/>
<path d="M71.0657 55.4062C71.0657 55.4062 77.4342 60.1671 77.9999 67.8295C78.4488 74.0503 79.4597 91.0864 79.6604 94.7938C79.9524 100.567 75.5109 114.092 63.9491 110.263C57.0149 107.964 31.4023 99.148 31.4023 99.148L33.1067 88.1294L63.5075 89.9776L64.1133 64.2958L71.0657 55.4062Z" fill="#018762"/>
<path d="M32.7494 89.3995C32.7494 89.3995 24.1437 88.4569 22.1657 88.9449C20.2497 89.4143 17.5234 91.7873 17.5234 91.7873L17.5636 95.2285L31.4064 99.1503L32.7494 89.3995Z" fill="#018762"/>
<path d="M43.543 81.2084C43.5524 81.1677 43.5659 81.1281 43.5831 81.0902C43.6123 81.0051 43.6561 80.8905 43.7108 80.7501C43.8313 80.4396 44.0065 80.0108 44.2254 79.449L46.1524 74.6734L49.0282 67.5987C49.302 66.9371 49.572 66.2459 49.9114 65.5695C50.2508 64.8931 50.6194 64.2166 51.0063 63.5402C51.8451 62.1611 52.7563 60.8285 53.7361 59.5482C54.2325 58.9014 54.7325 58.2693 55.2507 57.6631V57.7629L54.1777 55.0018L54.1413 54.9094L54.2325 54.8761L58.7105 53.3422L58.663 53.4679C56.5828 49.949 54.8274 46.9772 53.5792 44.8703C52.9661 43.828 52.4406 42.9926 51.8822 42.6526C51.6719 42.5241 51.4428 42.4305 51.2034 42.3753C51.1183 42.3592 51.0343 42.3382 50.9516 42.3125C51.0373 42.3183 51.1226 42.3294 51.207 42.3458C51.4551 42.391 51.6935 42.4798 51.9114 42.6082C52.25 42.8311 52.5425 43.1186 52.7727 43.4546C53.095 43.8912 53.3935 44.3453 53.6668 44.8149L58.8127 53.3828L58.8674 53.4753L58.7652 53.5085L54.2872 55.0647L54.342 54.9427L55.4186 57.7038L55.4405 57.7555L55.4003 57.7999C54.8894 58.3987 54.3894 59.0308 53.8967 59.6776C52.9207 60.9488 52.0119 62.2714 51.1742 63.64C50.7837 64.3127 50.4005 64.9744 50.0793 65.6508C49.7581 66.3272 49.4735 66.9999 49.1998 67.6653C48.1049 70.3192 47.1122 72.7107 46.2801 74.7252C45.448 76.7396 44.7692 78.3438 44.2984 79.4749C44.0649 80.0256 43.8787 80.4581 43.751 80.7649C43.689 80.9053 43.6415 81.0125 43.6014 81.0975C43.5869 81.137 43.5673 81.1743 43.543 81.2084Z" fill="#018762"/>
<path d="M74.5585 108.124C74.5276 108.166 74.4921 108.204 74.4527 108.238L74.1243 108.56C73.6921 108.96 73.2242 109.319 72.7265 109.632C71.9331 110.121 71.072 110.487 70.1718 110.718C68.979 111.017 67.7429 111.098 66.5222 110.955C65.8104 110.871 65.1079 110.72 64.4237 110.504C63.6938 110.275 62.9931 109.99 62.234 109.724C60.734 109.17 59.1209 108.615 57.4275 107.994C54.0335 106.789 50.2927 105.503 46.3511 104.191C38.4681 101.57 31.2785 99.3596 26.0669 97.7813L19.8919 95.9332L18.2131 95.4268L17.7788 95.2937C17.7286 95.2798 17.6797 95.2613 17.6328 95.2383L17.7861 95.2716L18.224 95.3898L19.9138 95.8593C21.3736 96.2732 23.494 96.8831 26.118 97.6519C31.3369 99.1933 38.5265 101.385 46.4205 104.01C50.3657 105.318 54.1065 106.597 57.4969 107.824C59.1903 108.434 60.7997 109.014 62.2997 109.572C63.0515 109.846 63.7595 110.134 64.4894 110.363C65.1637 110.58 65.8564 110.732 66.5587 110.818C67.7679 110.968 68.9937 110.899 70.1791 110.615C71.0759 110.392 71.9363 110.04 72.7338 109.569C73.2313 109.263 73.7026 108.916 74.1425 108.53L74.4819 108.223C74.5049 108.188 74.5306 108.155 74.5585 108.124Z" fill="#018762"/>
<path d="M17.5465 95.2877C17.5465 95.3283 17.0611 95.2211 16.2911 95.2544C15.841 95.2731 15.3948 95.3476 14.9626 95.4762C14.4351 95.6364 13.9317 95.869 13.4663 96.1674C12.6258 96.729 11.9149 97.4679 11.3824 98.3334C10.9773 98.9988 10.7985 99.4423 10.7656 99.4423C10.7851 99.3285 10.8195 99.2179 10.8678 99.1133C10.9782 98.8192 11.1125 98.5349 11.2693 98.2632C11.7807 97.3527 12.4988 96.5786 13.3641 96.0047C13.8451 95.6972 14.3676 95.4619 14.9152 95.3061C15.3626 95.1835 15.8239 95.1202 16.2874 95.1176C16.5985 95.1133 16.9092 95.1418 17.2144 95.2026C17.3284 95.2154 17.4402 95.244 17.5465 95.2877Z" fill="#018762"/>
<path d="M9.08203 92.5929C9.08203 92.5929 9.08203 92.556 9.11488 92.4931C9.15852 92.4049 9.21512 92.3239 9.28275 92.2529C9.54335 91.9944 9.87809 91.8262 10.2389 91.7723C10.761 91.6853 11.2935 91.6853 11.8155 91.7723C12.4542 91.8576 13.0819 92.0125 13.6878 92.2344C14.7958 92.6287 15.8076 93.2589 16.6549 94.0825C16.9074 94.3344 17.1382 94.6077 17.3446 94.8994C17.4248 95.0029 17.4922 95.1158 17.5454 95.2358C17.5125 95.2617 17.2132 94.7886 16.5636 94.1824C15.7071 93.4063 14.7073 92.8096 13.6221 92.4266C13.0299 92.2117 12.4189 92.0545 11.7973 91.9572C11.2914 91.8648 10.7747 91.8498 10.2645 91.9128C9.92495 91.9522 9.6041 92.0909 9.34115 92.312C9.15867 92.471 9.09663 92.6003 9.08203 92.5929Z" fill="#018762"/>
<path d="M19.1093 68.8661C19.0499 68.6847 19.0083 68.4977 18.9852 68.308C18.9304 68.1306 18.8538 67.9199 18.7699 67.6759C18.6859 67.432 18.5399 67.1659 18.3721 66.8849C17.9793 66.2232 17.5207 65.6039 17.0035 65.0368C16.3635 64.3481 15.6609 63.7219 14.905 63.1665C13.5328 62.1506 11.9726 61.4253 10.3175 61.0337C9.8139 60.9257 9.30252 60.8589 8.78833 60.8341C8.59889 60.8352 8.40968 60.8204 8.22266 60.7898C8.41118 60.7627 8.60172 60.7528 8.79199 60.7602C9.31234 60.7543 9.83197 60.8014 10.343 60.9007C12.0314 61.2573 13.6245 61.9771 15.0145 63.0112C15.7825 63.5707 16.4918 64.2086 17.1312 64.9148C17.6516 65.4954 18.1069 66.1326 18.4889 66.8147C18.6531 67.1067 18.7589 67.3913 18.8538 67.6316C18.9487 67.8718 18.9998 68.1047 19.0436 68.2858C19.0798 68.4773 19.1017 68.6713 19.1093 68.8661Z" fill="#018762"/>
<path d="M70.1102 100.457C70.1057 100.413 70.1057 100.368 70.1102 100.324V99.9358C70.1102 99.5958 70.0847 99.0968 70.0372 98.4573C69.9048 96.6409 69.5367 94.85 68.9423 93.131C68.7636 92.5615 68.5185 92.0155 68.2124 91.5046C67.871 90.9605 67.3747 90.5339 66.7891 90.2811C65.5665 89.7489 64.0957 89.8191 62.5994 89.7341L52.804 89.3164C44.7093 88.9468 37.5087 88.6511 32.9832 88.4071L33.0453 88.3554C32.7716 90.0409 32.5526 91.3752 32.403 92.303C32.3263 92.7503 32.2679 93.0977 32.2241 93.3454C32.2059 93.4562 32.1876 93.545 32.1767 93.6152L32.1548 93.7039C32.1515 93.6732 32.1515 93.6422 32.1548 93.6115L32.1913 93.3417C32.2241 93.094 32.2752 92.7429 32.3373 92.2919C32.4759 91.3642 32.673 90.0261 32.9248 88.3369V88.2852H32.9796L52.8003 89.1205L62.5958 89.5678C63.3476 89.6047 64.0811 89.6232 64.7855 89.6823C65.4875 89.7219 66.1782 89.8793 66.8292 90.1481C67.4424 90.4089 67.9639 90.8507 68.3256 91.4159C68.6344 91.9384 68.8795 92.4969 69.0555 93.0792C69.6418 94.8092 69.9906 96.6126 70.0919 98.4388C70.1321 99.082 70.1321 99.5847 70.1284 99.9173C70.1284 100.08 70.1284 100.209 70.1284 100.305C70.1138 100.409 70.1102 100.457 70.1102 100.457Z" fill="#018762"/>
<path d="M64.313 76.3516C64.3638 76.3516 64.4073 79.3345 64.4073 83.0049C64.4073 86.6753 64.3638 89.6581 64.313 89.6581C64.2623 89.6581 64.2188 86.6753 64.2188 83.0049C64.2188 79.3345 64.2623 76.3516 64.313 76.3516Z" fill="#018762"/>
<path d="M5.40278 61.168C5.40278 61.168 5.38089 61.253 5.32979 61.4119C5.2787 61.5709 5.18746 61.8111 5.11082 62.1512C4.93199 62.7906 4.70572 63.7443 4.4539 64.9899C3.94661 67.4812 3.32254 71.1257 2.62912 75.6869C2.28241 77.9712 1.89921 80.4921 1.53425 83.1941C1.34812 84.5506 1.23134 85.9626 1.13645 87.4263C1.04156 88.89 0.964919 90.3834 0.906526 91.9506C0.797039 95.0591 0.73134 98.3414 0.818929 101.76C0.848126 102.614 0.877324 103.479 0.946666 104.348C0.968563 104.784 1.04155 105.213 1.09265 105.645C1.17059 106.078 1.27419 106.505 1.40286 106.924C1.66257 107.772 2.07321 108.565 2.61452 109.264C3.15733 109.974 3.87108 110.532 4.68747 110.883C6.4248 111.746 8.23646 112.446 10.0998 112.975C11.9866 113.548 13.9355 114.01 15.9135 114.42C20.2175 115.32 24.5875 115.859 28.979 116.032C31.0594 116.086 33.1412 116.032 35.2161 115.869C37.2489 115.725 39.2306 115.5 41.1466 115.222C44.7595 114.704 48.3205 113.865 51.7887 112.716C54.7584 111.723 57.6377 110.471 60.3944 108.976V109.098L48.6209 104.858L45.4421 103.708L44.621 103.405C44.4349 103.335 44.3436 103.294 44.3436 103.294L44.6246 103.387L45.4531 103.671L48.6428 104.78L60.4674 108.957L60.6097 109.005L60.4783 109.079C57.7166 110.587 54.8312 111.85 51.8544 112.853C48.3788 114.013 44.8091 114.86 41.1867 115.385C39.2671 115.677 37.2817 115.895 35.2453 116.039C33.1644 116.204 31.0765 116.261 28.9899 116.209C24.5874 116.039 20.2063 115.5 15.8916 114.598C13.9063 114.184 11.9538 113.722 10.0523 113.149C8.17816 112.613 6.35568 111.907 4.60718 111.038C3.75666 110.676 3.01259 110.098 2.44664 109.36C1.89315 108.642 1.47385 107.828 1.20943 106.957C1.07705 106.531 0.97101 106.096 0.891925 105.656C0.837181 105.213 0.767842 104.777 0.745944 104.34C0.676603 103.468 0.647408 102.6 0.621861 101.753C0.534271 98.323 0.62186 95.0407 0.724048 91.9284C0.782441 90.376 0.861513 88.8666 0.961267 87.4005C1.05981 85.9219 1.18024 84.5174 1.37002 83.1608C1.73497 80.4441 2.12183 77.9343 2.46489 75.6537C3.1948 71.0925 3.82982 67.4516 4.35901 64.964C4.62178 63.7184 4.85535 62.7648 5.04513 62.1253C5.12542 61.8037 5.2276 61.5672 5.2787 61.4082C5.32979 61.2493 5.40278 61.168 5.40278 61.168Z" fill="#018762"/>
<path d="M17.5039 92.7308C21.9965 87.6928 21.7994 78.7367 19.2192 72.3828C18.982 79.2653 18.1791 85.3715 17.566 92.0618" fill="#018762"/>
<path d="M19.2295 73.6719C19.2374 73.7456 19.2374 73.8199 19.2295 73.8937C19.2295 74.06 19.2076 74.2633 19.1893 74.522C19.1455 75.0949 19.0872 75.8785 19.0105 76.8322C18.8499 78.806 18.6456 81.4858 18.3937 84.4502L17.8025 92.0719C17.7332 93.0256 17.6748 93.8092 17.631 94.3821L17.5762 95.0068C17.5719 95.0801 17.5621 95.153 17.547 95.2249C17.5364 95.1526 17.5364 95.0791 17.547 95.0068C17.547 94.8405 17.5471 94.6372 17.5653 94.3747C17.5835 93.8277 17.6237 93.0367 17.6748 92.0609C17.7879 90.1092 17.9704 87.4109 18.2113 84.4354C18.4521 81.4599 18.693 78.769 18.8864 76.8211C18.985 75.8675 19.0653 75.0875 19.1236 74.5146C19.1565 74.2596 19.182 74.0526 19.2003 73.89C19.2002 73.8163 19.21 73.7429 19.2295 73.6719Z" fill="#018762"/>
<path d="M30.3052 64.5703C30.4008 65.8702 30.4323 67.1742 30.3995 68.4773C30.4321 69.7804 30.4007 71.0843 30.3052 72.3842C30.2544 72.3842 30.2109 70.6322 30.2109 68.4773C30.2109 66.3223 30.2544 64.5703 30.3052 64.5703Z" fill="#018762"/>
<path d="M27.375 77.553C27.4515 78.3086 27.7388 79.0266 28.2034 79.6229C28.6268 80.1811 29.4844 80.7318 30.1742 80.6837C30.6939 80.7106 31.2116 80.6004 31.6767 80.3639C32.1417 80.1274 32.5382 79.7728 32.8274 79.3346C33.6668 77.9818 33.8749 75.1615 33.1924 73.4945C32.7289 72.3486 31.6888 71.2767 30.4662 71.2508C28.8604 71.2139 27.8531 72.3893 27.51 73.5795" fill="#018762"/>
<path d="M27.517 73.5742C27.5701 73.293 27.67 73.023 27.8126 72.7758C27.9715 72.4787 28.1746 72.2082 28.4148 71.9737C28.7365 71.6614 29.1267 71.4309 29.5534 71.301C29.8009 71.2242 30.0575 71.1819 30.3162 71.1753C30.5991 71.1597 30.8825 71.1973 31.1519 71.2862C31.7397 71.4968 32.2561 71.8724 32.6409 72.3692C33.0752 72.9056 33.3767 73.5392 33.5205 74.2173C33.672 74.9372 33.726 75.6746 33.681 76.4092C33.6081 77.5662 33.3818 78.7194 32.7504 79.5991C32.4365 80.0124 32.0177 80.3318 31.5388 80.5232C31.1033 80.7 30.6352 80.7795 30.1666 80.756C29.8243 80.7591 29.4868 80.6752 29.1848 80.5121C28.9191 80.3715 28.6736 80.1949 28.4549 79.9872C28.1113 79.6404 27.8385 79.2284 27.652 78.7748C27.527 78.4886 27.4411 78.1864 27.3966 77.8766C27.3842 77.7959 27.3769 77.7144 27.3747 77.6327C27.3699 77.6046 27.3699 77.5758 27.3747 77.5477C27.4489 77.9577 27.5715 78.3573 27.7396 78.7379C27.9346 79.1722 28.2096 79.5648 28.5498 79.8948C28.7701 80.0902 29.0157 80.2544 29.2797 80.3827C29.5616 80.5301 29.8749 80.605 30.1921 80.6008C30.6545 80.6241 31.1157 80.5357 31.5376 80.3429C31.9596 80.15 32.3303 79.8584 32.619 79.4919C33.2066 78.6676 33.4329 77.5329 33.5022 76.4018C33.5825 74.9233 33.338 73.467 32.5168 72.4838C32.1497 72.0123 31.659 71.655 31.1008 71.4525C30.848 71.3678 30.5824 71.329 30.3162 71.3379C30.0693 71.3407 29.8238 71.3767 29.5863 71.4451C29.1783 71.5643 28.8034 71.7782 28.4914 72.0698C28.2528 72.2909 28.0475 72.5462 27.8819 72.8275C27.7465 73.0693 27.6247 73.3186 27.517 73.5742Z" fill="#018762"/>
<path d="M26.5234 77.6265C26.6005 78.382 26.8878 79.0998 27.3519 79.6964C27.7716 80.2545 28.6329 80.8053 29.3226 80.7572C29.8423 80.7837 30.3599 80.6733 30.8249 80.4369C31.2899 80.2004 31.6864 79.846 31.9759 79.4081C32.8153 78.0515 33.0233 75.235 32.3408 73.568C31.8773 72.4184 30.8372 71.3502 29.6146 71.3243C28.9355 71.3185 28.2742 71.5448 27.7377 71.9667C27.2013 72.3886 26.8211 72.9814 26.6585 73.6493" fill="#018762"/>
<path d="M26.6685 73.6485C26.7219 73.3686 26.8219 73.0999 26.9641 72.8538C27.1229 72.5567 27.3261 72.2862 27.5663 72.0517C28.078 71.5522 28.7571 71.2671 29.4677 71.2533C29.7506 71.238 30.0339 71.2756 30.3034 71.3642C30.8912 71.5748 31.4077 71.9504 31.7925 72.4472C32.2269 72.983 32.5274 73.6169 32.6683 74.2954C32.8229 75.0148 32.8782 75.7525 32.8326 76.4873C32.7596 77.6442 32.5333 78.7937 31.9019 79.6772C31.588 80.0905 31.1692 80.4099 30.6903 80.6012C30.2548 80.7781 29.7867 80.8575 29.3181 80.8341C28.9755 80.836 28.638 80.7509 28.3363 80.5864C28.07 80.4484 27.8243 80.2729 27.6064 80.0653C27.2607 79.7188 26.9876 79.3052 26.8035 78.8492C26.6786 78.5642 26.5927 78.2632 26.548 77.9547C26.548 77.8475 26.5261 77.7662 26.5225 77.7107C26.5185 77.6825 26.5185 77.6539 26.5225 77.6257C26.5971 78.0345 26.7196 78.4328 26.8874 78.8122C27.08 79.249 27.3553 79.6433 27.6976 79.9729C27.918 80.1683 28.1635 80.3324 28.4276 80.4608C28.71 80.6065 29.023 80.6813 29.3399 80.6789C29.8017 80.7015 30.2622 80.6128 30.6835 80.42C31.1048 80.2273 31.4749 79.9359 31.7633 79.57C32.3545 78.742 32.5808 77.6109 32.6501 76.4799C32.7304 75.0014 32.4859 73.545 31.6647 72.5618C31.3034 72.0865 30.8161 71.725 30.2596 71.5195C30.008 71.4348 29.7436 71.396 29.4786 71.4049C28.8013 71.4154 28.1515 71.6786 27.6539 72.1441C27.4152 72.3652 27.2099 72.6205 27.0444 72.9019C26.9038 73.1425 26.7782 73.3919 26.6685 73.6485Z" fill="#018762"/>
<path d="M28.0738 73.2338C27.6689 73.1818 27.2582 73.2652 26.9045 73.4714C26.5507 73.6776 26.2731 73.9952 26.114 74.376C25.811 75.1513 25.811 76.0144 26.114 76.7896C26.2395 77.1912 26.4472 77.5615 26.7235 77.8763C27.005 78.1935 27.3981 78.3859 27.8184 78.4123C28.1225 78.395 28.4181 78.304 28.6803 78.1471C28.9426 77.9902 29.1639 77.7718 29.3256 77.5104C29.608 77.1033 29.8002 76.6392 29.8891 76.1499C29.9779 75.6606 29.9612 75.1576 29.8402 74.6754C29.6723 74.0322 29.2052 73.378 28.5519 73.3595" fill="#018762"/>
<path d="M28.5461 73.3588C28.5461 73.3588 28.5972 73.3588 28.6921 73.3588C28.8328 73.3751 28.9685 73.4217 29.0899 73.4956C29.3051 73.6408 29.4895 73.8281 29.6324 74.0464C29.7753 74.2648 29.8737 74.5098 29.922 74.7671C30.1001 75.5254 30.0204 76.3224 29.6957 77.0292C29.5136 77.4528 29.2332 77.8256 28.8782 78.1159C28.6874 78.2826 28.46 78.4007 28.215 78.4605C27.9699 78.5203 27.7144 78.52 27.4695 78.4597C26.9914 78.3054 26.5894 77.9723 26.3454 77.5282C26.1215 77.1307 25.9637 76.6986 25.8783 76.2493C25.787 75.8739 25.7723 75.4836 25.8351 75.1023C25.8978 74.721 26.0367 74.3566 26.2433 74.0315C26.3912 73.8168 26.5795 73.6338 26.7975 73.493C27.0154 73.3521 27.2587 73.2563 27.5133 73.2109C27.6524 73.1901 27.7939 73.1901 27.933 73.2109C28.0242 73.2294 28.0717 73.2442 28.0717 73.2516C27.8898 73.2452 27.7077 73.2564 27.5279 73.2849C27.0468 73.3979 26.6264 73.6928 26.3527 74.1091C26.1637 74.4232 26.0394 74.7727 25.9873 75.1367C25.9353 75.5007 25.9565 75.8717 26.0498 76.2271C26.135 76.6551 26.2891 77.0659 26.506 77.4432C26.7263 77.8444 27.089 78.1457 27.5206 78.2859C27.7369 78.3394 27.9627 78.3399 28.1791 78.2871C28.3956 78.2344 28.5965 78.1301 28.7651 77.9828C29.0963 77.7098 29.361 77.3633 29.5388 76.9701C29.8547 76.2981 29.9432 75.5394 29.7906 74.8114C29.7138 74.3189 29.4523 73.8754 29.0607 73.5732C28.9038 73.4701 28.7293 73.3974 28.5461 73.3588Z" fill="#018762"/>
<path d="M29.9121 79.3111C29.8829 79.3111 29.8427 79.1928 29.7186 79.0449C29.5515 78.8547 29.3354 78.7152 29.0946 78.6421C28.8451 78.5694 28.5877 78.5284 28.3282 78.5201C28.1275 78.5201 27.9961 78.4868 27.9961 78.4609C27.9961 78.4351 28.1202 78.4055 28.3282 78.3833C28.6053 78.3534 28.8854 78.3785 29.153 78.4572C29.4318 78.5385 29.6718 78.7198 29.8281 78.9673C29.9413 79.1595 29.934 79.3074 29.9121 79.3111Z" fill="#018762"/>
<path d="M30.2019 72.7344C30.2019 72.7344 30.1435 72.8637 29.9756 73.0005C29.7499 73.1753 29.4856 73.292 29.2055 73.3405C28.9262 73.3921 28.6387 73.3769 28.3662 73.2962C28.1618 73.226 28.0523 73.1446 28.0632 73.1225C28.4255 73.1797 28.7934 73.1896 29.1581 73.152C29.5217 73.0569 29.8723 72.9166 30.2019 72.7344Z" fill="#018762"/>
<path d="M55.2773 46.2539C55.2773 46.2539 55.3211 46.2539 55.3978 46.2983C55.5092 46.3486 55.6176 46.4054 55.7226 46.4683C56.1139 46.6924 56.4808 46.9575 56.8175 47.2593C57.9397 48.2604 58.7553 49.5662 59.1678 51.0221C59.5997 52.4521 59.899 53.9197 60.0619 55.4059C60.1276 55.9751 60.1605 56.4372 60.1824 56.755C60.2007 56.9209 60.2007 57.0882 60.1824 57.254C60.1413 57.0929 60.1145 56.9284 60.1021 56.7624C60.0546 56.4113 59.9926 55.9603 59.9233 55.4244C59.7213 53.9526 59.4053 52.4991 58.978 51.0775C58.5721 49.6543 57.7926 48.3692 56.7226 47.3591C56.2685 46.955 55.7854 46.5856 55.2773 46.2539Z" fill="#018762"/>
<path d="M50.7288 86.9427C51.7872 86.9021 52.6338 85.8339 53.6922 85.893C53.8839 85.9095 54.0705 85.9641 54.2414 86.0536C54.4123 86.1432 54.5641 86.2659 54.6881 86.4149C54.8122 86.5639 54.906 86.7361 54.9643 86.9218C55.0226 87.1075 55.0443 87.303 55.028 87.4972C55.0117 87.6913 54.9578 87.8803 54.8694 88.0534C54.7809 88.2265 54.6597 88.3802 54.5126 88.5058C54.3656 88.6314 54.1955 88.7265 54.0121 88.7855C53.8288 88.8446 53.6358 88.8665 53.4441 88.85C52.3309 88.7206 51.6813 87.4011 50.5938 87.1497" fill="#018762"/>
<path d="M59.6973 87.8541C59.366 87.8535 59.0353 87.8263 58.7083 87.7728L58.7667 87.4031C60.0732 87.6138 61.1717 87.4031 62.0294 86.7563C63.1243 85.9542 63.8067 84.5163 64.0987 82.4834V82.4058C64.2191 81.6 64.3834 65.791 64.3834 62.7896C64.3834 58.099 60.3214 57.4596 60.1462 57.4337C59.971 57.4078 56.2886 56.7795 54.3288 61.8988C52.2778 67.2621 48.9968 77.5969 48.7815 78.8093C48.7523 78.9571 48.7121 79.1419 48.6683 79.3526C48.3253 80.9051 47.6173 84.1319 49.7413 85.9875C52.1099 88.0611 53.9784 87.259 54.0551 87.2257L54.2047 87.5621C54.1171 87.599 52.0588 88.5046 49.5041 86.2684C47.2122 84.265 47.953 80.894 48.3107 79.2713C48.3581 79.0643 48.3946 78.9017 48.4202 78.7427C48.6391 77.523 51.931 67.1438 53.9894 61.7657C56.0478 56.3877 60.1645 57.0604 60.1937 57.0715C60.2229 57.0826 64.7337 57.7738 64.7337 62.7896C64.7337 65.2624 64.5731 81.6037 64.4454 82.4612V82.5351C64.1388 84.6716 63.3943 86.1908 62.2301 87.0557C61.4931 87.5919 60.6046 87.872 59.6973 87.8541Z" fill="#018762"/>
<path d="M64.5821 65.8128C64.4204 65.1622 64.1646 64.5395 63.823 63.9647C63.4347 63.3582 62.9472 62.8232 62.3814 62.3826C61.6849 61.85 60.8853 61.4721 60.0348 61.2738C58.4727 60.9256 56.8396 61.1413 55.4181 61.8837C54.8374 62.205 54.2971 62.596 53.8086 63.048C53.8316 63.0074 53.8599 62.9702 53.8925 62.9371C53.9759 62.8314 54.0675 62.7325 54.1663 62.6414C54.521 62.2968 54.92 62.0021 55.3524 61.7654C56.7943 60.966 58.4738 60.7243 60.0786 61.0853C60.955 61.2949 61.7765 61.6933 62.4873 62.2533C63.0689 62.7097 63.5636 63.2696 63.9471 63.9055C64.2038 64.3315 64.3934 64.7954 64.5091 65.2805C64.5435 65.4117 64.5691 65.5451 64.5858 65.6797C64.5858 65.761 64.5894 65.8128 64.5821 65.8128Z" fill="#018762"/>
<path d="M73.8744 95.3644C73.7397 94.8293 73.5715 94.3033 73.3708 93.7898C72.8521 92.5647 71.9923 91.5192 70.8964 90.781C70.2829 90.4011 69.6003 90.1497 68.8891 90.0418C68.3027 89.9494 67.7119 89.8877 67.1191 89.8569L65.9184 89.7719C65.7708 89.7679 65.624 89.748 65.4805 89.7128C65.6271 89.6947 65.7754 89.6947 65.9221 89.7128L67.1264 89.735C67.7249 89.7484 68.322 89.7978 68.9147 89.8828C69.6524 89.9803 70.362 90.2321 70.9986 90.6221C72.1266 91.3784 72.998 92.4674 73.4949 93.7418C73.6469 94.1219 73.7594 94.5171 73.8306 94.9209C73.8645 95.0661 73.8792 95.2153 73.8744 95.3644Z" fill="#018762"/>
<path d="M55.4609 89.1963C55.4609 89.1963 59.0521 83.6925 59.9681 82.9717C60.8842 82.2509 68.7271 78.6656 69.6358 79.2422C70.5446 79.8188 70.0008 81.0681 70.0008 81.0681C70.0008 81.0681 73.3146 79.8927 73.6686 80.3547C73.859 80.6326 73.961 80.9628 73.961 81.301C73.961 81.6392 73.859 81.9694 73.6686 82.2473C73.6686 82.2473 75.4934 81.9626 75.4934 82.5356C75.4861 82.9203 75.3858 83.2973 75.2013 83.6337C75.0168 83.97 74.7537 84.2555 74.435 84.465C73.5883 85.1082 68.0811 88.8192 67.6395 89.8468L65.8549 89.7359L55.4609 89.1963Z" fill="#018762"/>
<path d="M65.793 87.6205C65.8335 87.4983 65.8886 87.3816 65.9572 87.273C66.132 86.9721 66.3297 86.6854 66.5484 86.4155C67.2823 85.5291 68.1628 84.7786 69.1506 84.1977C70.1331 83.6156 71.1637 83.1209 72.2308 82.7192C72.6359 82.5603 72.9607 82.442 73.1979 82.3496C73.315 82.3005 73.4376 82.2657 73.5629 82.2461C73.4581 82.3195 73.3439 82.378 73.2234 82.4198L72.2782 82.8301C71.2362 83.2619 70.2242 83.7645 69.2491 84.3345C68.2791 84.9077 67.4025 85.6297 66.6506 86.4746C66.0813 87.1584 65.8258 87.639 65.793 87.6205Z" fill="#018762"/>
<path d="M61.2383 87.5322C61.2808 87.3914 61.3396 87.2561 61.4135 87.1293C61.5375 86.8742 61.7164 86.5083 61.9645 86.0647C62.2508 85.5435 62.5818 85.0488 62.9536 84.5862C63.1742 84.3049 63.4265 84.0506 63.7054 83.8285C64.0083 83.6215 64.3258 83.4293 64.6579 83.2297C65.7802 82.5523 66.9514 81.9616 68.1615 81.4629C68.5282 81.316 68.9036 81.1926 69.2856 81.0933C69.426 81.0522 69.5704 81.0262 69.7162 81.0156C69.7162 81.0489 69.1213 81.1894 68.2126 81.6033C67.0252 82.1363 65.8699 82.7399 64.7528 83.4108C64.4243 83.6067 64.1068 83.8026 63.8112 83.9985C63.5425 84.2081 63.2977 84.4473 63.0813 84.7119C62.7072 85.1637 62.3703 85.6459 62.074 86.1535L61.4682 87.181C61.4042 87.3061 61.3271 87.4238 61.2383 87.5322Z" fill="#018762"/>
<path d="M33.191 18.6326C33.0596 18.5808 27.9685 17.228 28.275 22.4435C28.5816 27.6589 33.6873 26.2691 33.691 26.1176C33.6946 25.966 33.191 18.6326 33.191 18.6326Z" fill="#B78876"/>
<path d="M32.0032 24.2366C31.9776 24.2182 31.9156 24.3032 31.7696 24.3845C31.5611 24.4901 31.32 24.5087 31.0981 24.4362C30.5434 24.2699 30.0325 23.4235 29.9522 22.4846C29.9123 22.0455 29.9671 21.6028 30.1128 21.1872C30.1513 21.021 30.2292 20.8668 30.3399 20.7379C30.4505 20.6091 30.5905 20.5096 30.7478 20.448C30.8493 20.414 30.9593 20.4173 31.0587 20.4571C31.1581 20.497 31.2405 20.5709 31.2915 20.666C31.3682 20.8065 31.3426 20.9137 31.3682 20.9211C31.3937 20.9285 31.474 20.825 31.4193 20.6143C31.3841 20.4862 31.3052 20.3749 31.1967 20.3001C31.1237 20.2498 31.0416 20.2148 30.9551 20.197C30.8687 20.1793 30.7796 20.1791 30.693 20.1966C30.4845 20.2518 30.2934 20.3604 30.1381 20.5118C29.9828 20.6632 29.8685 20.8525 29.8062 21.0615C29.6103 21.5276 29.5325 22.0358 29.5799 22.54C29.6748 23.5898 30.266 24.5397 31.0215 24.7135C31.1624 24.7459 31.3087 24.7458 31.4496 24.7131C31.5905 24.6805 31.7223 24.6162 31.8353 24.5249C31.9995 24.3623 32.0214 24.244 32.0032 24.2366Z" fill="#AA6550"/>
<path d="M46.0469 0.00390625C48.6636 0.00390625 51.3278 0.00390431 54.6015 1.73746C56.6671 2.84634 57.9518 4.55772 59.0284 6.64981C59.8871 8.3507 60.3065 10.2442 60.2473 12.1536C60.1525 13.9573 60.1451 15.2178 59.4335 16.8737" fill="#263238"/>
<path d="M44.9976 0.410522C46.8368 0.277793 48.6837 0.517862 50.4303 1.11669C52.1768 1.71551 53.7879 2.66106 55.1693 3.89804C56.5506 5.13501 57.6746 6.63856 58.4754 8.32074C59.2762 10.0029 59.7378 11.8299 59.8331 13.6949C60.1688 20.2263 60.4644 27.2899 60.3951 30.8457C60.2418 38.4822 52.6909 39.6095 52.6909 39.6095C52.6909 39.6095 52.8588 41.8717 53.0558 44.6808C53.1436 46.0228 52.9649 47.369 52.5302 48.6398C52.0955 49.9106 51.4136 51.0803 50.5249 52.0796C49.6362 53.0789 48.5587 53.8877 47.3561 54.458C46.1534 55.0283 44.8501 55.3486 43.5232 55.4C42.2194 55.4505 40.9185 55.2401 39.695 54.7809C38.4715 54.3218 37.3494 53.6228 36.3929 52.7241C35.4363 51.8253 34.6641 50.7444 34.1204 49.5431C33.5767 48.3418 33.2721 47.0438 33.2241 45.7232L32.1037 14.948C31.9672 11.3006 33.2379 7.74257 35.6467 5.02763C38.0555 2.3127 41.4132 0.654087 45.0086 0.403127L44.9976 0.410522Z" fill="#B78876"/>
<path d="M52.6948 39.6136C52.6948 39.6136 48.0598 39.8576 43.0234 36.5938C43.0234 36.5938 45.3044 42.1382 52.8298 41.5246L52.6948 39.6136Z" fill="#AA6550"/>
<path d="M56.9433 17.9459C56.9492 18.2329 56.8428 18.5106 56.6472 18.7183C56.4517 18.9261 56.1829 19.0471 55.8996 19.0548C55.7631 19.0643 55.6261 19.0461 55.4967 19.0011C55.3673 18.9562 55.248 18.8855 55.146 18.7932C55.044 18.7009 54.9612 18.5888 54.9026 18.4636C54.844 18.3384 54.8107 18.2026 54.8047 18.0642C54.8044 17.7789 54.9127 17.5044 55.1071 17.2979C55.3015 17.0913 55.567 16.9686 55.8485 16.9553C55.9848 16.9463 56.1216 16.9649 56.2508 17.0101C56.38 17.0552 56.4991 17.1259 56.601 17.2181C56.7029 17.3103 56.7857 17.4222 56.8445 17.5472C56.9032 17.6721 56.9369 17.8077 56.9433 17.9459Z" fill="#263238"/>
<path d="M57.9934 16.3996C57.8584 16.54 57.0481 15.9227 55.8876 15.9153C54.727 15.908 53.8766 16.492 53.7525 16.3478C53.6905 16.2813 53.8292 16.0262 54.2014 15.7564C54.7046 15.407 55.3032 15.2261 55.9131 15.2389C56.5154 15.2394 57.1015 15.4364 57.5846 15.8008C57.9386 16.078 58.0591 16.3367 57.9934 16.3996Z" fill="#263238"/>
<path d="M45.5837 17.9457C45.5896 18.2333 45.4826 18.5115 45.2863 18.7194C45.0899 18.9273 44.8202 19.0478 44.5363 19.0546C44.3999 19.0636 44.2631 19.045 44.1339 18.9998C44.0047 18.9547 43.8857 18.884 43.7838 18.7918C43.6819 18.6996 43.5991 18.5877 43.5403 18.4628C43.4815 18.3378 43.4479 18.2022 43.4414 18.064C43.4411 17.778 43.55 17.503 43.7451 17.2964C43.9403 17.0898 44.2068 16.9675 44.4888 16.9551C44.6251 16.9466 44.7617 16.9656 44.8907 17.0109C45.0197 17.0562 45.1385 17.127 45.2403 17.2191C45.3421 17.3112 45.4249 17.4228 45.4838 17.5476C45.5428 17.6723 45.5767 17.8076 45.5837 17.9457Z" fill="#263238"/>
<path d="M46.6012 16.532C46.4662 16.6724 45.6523 16.0551 44.4954 16.0477C43.3385 16.0404 42.4845 16.6207 42.3568 16.4765C42.2984 16.4137 42.4335 16.1549 42.8094 15.8851C43.3135 15.5378 43.9114 15.357 44.521 15.3676C45.1227 15.3718 45.7077 15.5684 46.1925 15.9295C46.5355 16.2104 46.6669 16.4654 46.6012 16.532Z" fill="#263238"/>
<path d="M50.7354 25.2498C50.7354 25.1832 51.4653 25.0649 52.6185 24.9208C52.9141 24.8912 53.1951 24.8358 53.2462 24.6325C53.2757 24.3228 53.2093 24.0115 53.0564 23.7417C52.7864 23.0024 52.4981 22.2632 52.1988 21.4537C51.0091 18.1936 50.1514 15.5175 50.2828 15.4694C50.4142 15.4214 51.4835 18.0235 52.6696 21.2837C52.9579 22.0858 53.2316 22.8509 53.4907 23.5864C53.6742 23.9487 53.7259 24.3648 53.6367 24.7619C53.5917 24.867 53.5241 24.9607 53.4389 25.0362C53.3537 25.1116 53.253 25.1669 53.144 25.198C52.9804 25.2391 52.8127 25.2615 52.6441 25.2645C51.4689 25.3274 50.739 25.3274 50.7354 25.2498Z" fill="#263238"/>
<path d="M47.3193 26.047C47.5091 26.047 47.4981 27.3111 48.5674 28.2241C49.6368 29.1371 50.9798 29.0077 50.9871 29.1851C50.9871 29.2665 50.6842 29.4328 50.1185 29.4439C49.3809 29.4453 48.6664 29.1836 48.1003 28.7046C47.5579 28.2447 47.2115 27.5907 47.1332 26.8787C47.0894 26.3612 47.2317 26.0396 47.3193 26.047Z" fill="#263238"/>
<path d="M46.9345 11.9465C46.8178 12.2643 45.6645 12.1054 44.3032 12.2607C42.9419 12.4159 41.8397 12.7818 41.6609 12.4935C41.5843 12.3568 41.7777 12.0574 42.2229 11.7543C42.8173 11.3814 43.4876 11.1504 44.1831 11.0787C44.8786 11.007 45.5811 11.0964 46.2375 11.3403C46.7375 11.5288 46.9856 11.7801 46.9345 11.9465Z" fill="#263238"/>
<path d="M57.8256 12.2251C57.6212 12.4912 56.8256 12.2066 55.8657 12.1881C54.9059 12.1696 54.092 12.3508 53.9059 12.0699C53.8256 11.9331 53.9533 11.667 54.311 11.4193C54.7906 11.1199 55.3473 10.972 55.9102 10.9944C56.4731 11.0168 57.0166 11.2085 57.4715 11.545C57.8073 11.8222 57.9168 12.0957 57.8256 12.2251Z" fill="#263238"/>
<path d="M32.1803 17.3424C32.1803 17.3424 32.5087 19.1092 32.5963 19.9039C32.6291 20.1959 32.5963 23.4302 33.3664 23.6002C34.0342 23.7407 35.359 23.1234 35.9502 21.7853C36.5415 20.4473 37.6655 17.2352 37.5414 15.7752C37.3772 13.7866 37.286 11.761 37.6801 9.80199C38.0743 7.84296 38.9976 5.93568 40.5487 4.70112C42.0998 3.46656 44.3442 3.04149 46.1106 3.93599C47.2055 4.49043 48.012 5.46995 49.0303 6.15376C49.9334 6.80168 51.0395 7.09226 52.1397 6.97063C52.6855 6.90121 53.2009 6.67701 53.6264 6.32388C54.0519 5.97074 54.3702 5.50303 54.5447 4.97465C54.8659 3.81032 54.2747 2.5351 53.3513 1.76258C52.428 0.990056 51.2419 0.635215 50.0667 0.398653C46.8047 -0.310787 43.411 -0.0698542 40.2786 1.09355C37.1874 2.30963 34.4393 4.64568 33.1255 7.72468C31.6 11.2842 31.7752 13.4687 32.1803 17.335" fill="#263238"/>
<path d="M49.4142 17.9886C49.378 17.5655 49.3121 17.1455 49.2171 16.7319C48.9247 15.6089 48.2679 14.6181 47.3522 13.919C46.7259 13.4392 45.9971 13.1151 45.2245 12.9728C44.3372 12.8085 43.4227 12.8863 42.5749 13.1982C42.1184 13.3632 41.69 13.5988 41.3048 13.8968C40.8935 14.1964 40.5335 14.5622 40.2391 14.9798C39.6062 15.8527 39.2648 16.9075 39.2648 17.9905C39.2648 19.0735 39.6062 20.1282 40.2391 21.0011C40.5354 21.417 40.8952 21.7826 41.3048 22.0841C41.6901 22.381 42.1185 22.6154 42.5749 22.779C43.4224 23.0919 44.3368 23.171 45.2245 23.0082C45.9976 22.8653 46.7265 22.5398 47.3522 22.0582C48.2685 21.3606 48.9267 20.3712 49.2207 19.249C49.3139 18.8339 49.3785 18.4128 49.4142 17.9886C49.4196 18.0167 49.4196 18.0456 49.4142 18.0736V18.3213C49.4159 18.4563 49.4049 18.5912 49.3813 18.7242C49.364 18.9063 49.3323 19.0868 49.2864 19.2638C49.0148 20.4195 48.3589 21.4453 47.4288 22.1691C46.7399 22.7067 45.9283 23.0596 45.069 23.1953C44.2098 23.331 43.3306 23.245 42.5128 22.9453C42.0384 22.7787 41.5927 22.538 41.1917 22.2319C40.7709 21.9235 40.4013 21.5492 40.0968 21.1231C39.4377 20.2185 39.082 19.1239 39.082 17.9997C39.082 16.8755 39.4377 15.7809 40.0968 14.8763C40.7089 14.0322 41.5531 13.3894 42.5238 13.0282C43.3998 12.7115 44.3431 12.6362 45.2573 12.8101C46.0546 12.9635 46.8049 13.3055 47.4471 13.8081C48.3765 14.531 49.0323 15.5554 49.3047 16.7097C49.3506 16.888 49.3823 17.0697 49.3996 17.2531C49.4232 17.3847 49.4342 17.5184 49.4324 17.6523V17.8999C49.4215 17.9627 49.4178 17.9886 49.4142 17.9886Z" fill="#263238"/>
<path d="M62.6899 17.9924C62.6514 17.5696 62.5855 17.1498 62.4928 16.7357C62.1995 15.6121 61.5413 14.6213 60.6242 13.9228C59.9983 13.4424 59.2693 13.1182 58.4965 12.9766C57.6104 12.8123 56.6971 12.8901 55.8506 13.202C54.9161 13.5506 54.1037 14.1703 53.5149 14.9836C52.8797 15.8556 52.537 16.9107 52.537 17.9943C52.537 19.0778 52.8797 20.1329 53.5149 21.0049C53.8099 21.4207 54.1684 21.7863 54.5769 22.0879C54.963 22.3856 55.3927 22.62 55.8506 22.7828C56.6968 23.0958 57.6101 23.1749 58.4965 23.0119C59.2696 22.869 59.9986 22.5436 60.6242 22.062C61.5406 21.3644 62.1988 20.375 62.4928 19.2528C62.5857 18.8375 62.6515 18.4165 62.6899 17.9924C62.6915 18.0207 62.6915 18.0491 62.6899 18.0774C62.6899 18.1439 62.6899 18.2253 62.6899 18.3251C62.6913 18.46 62.6815 18.5947 62.6607 18.728C62.642 18.9102 62.6091 19.0907 62.5622 19.2676C62.2934 20.4245 61.6369 21.4512 60.7045 22.1729C60.0624 22.6748 59.312 23.0156 58.5148 23.1672C57.5996 23.3449 56.6541 23.2695 55.7776 22.9491C54.8054 22.5927 53.9612 21.9488 53.3543 21.101C52.6929 20.1974 52.3359 19.1024 52.3359 17.9776C52.3359 16.8528 52.6929 15.7579 53.3543 14.8543C53.6583 14.4277 54.028 14.0533 54.4491 13.7454C54.8509 13.4396 55.2964 13.1977 55.7703 13.0283C56.6475 12.7114 57.5921 12.6362 58.5075 12.8102C59.305 12.9631 60.0554 13.3051 60.6972 13.8082C61.6287 14.5292 62.285 15.5544 62.5549 16.7098C62.6018 16.888 62.6348 17.0697 62.6534 17.2531C62.6742 17.3851 62.6839 17.5187 62.6826 17.6523C62.6826 17.7521 62.6826 17.8335 62.6826 17.9C62.6871 17.9306 62.6895 17.9615 62.6899 17.9924Z" fill="#263238"/>
<path d="M52.5642 17.438C52.5642 17.4675 52.378 17.3714 52.0897 17.2753C51.7129 17.147 51.3149 17.0942 50.9182 17.1201C50.5258 17.1496 50.1423 17.2524 49.7868 17.4232C49.5131 17.56 49.3598 17.6782 49.3416 17.6524C49.3233 17.6265 49.451 17.4786 49.7065 17.3049C50.0662 17.0854 50.4724 16.9561 50.8914 16.9278C51.3104 16.8995 51.73 16.973 52.1153 17.1423C52.4328 17.2827 52.5788 17.4232 52.5642 17.438Z" fill="#263238"/>
<path d="M54.6154 4.5541C54.692 4.15859 54.5606 3.93682 54.7833 3.77418C55.0059 3.61154 55.5132 4.07728 55.6811 4.26948C55.7395 4.33232 55.9146 4.08837 55.984 4.04401C56.06 3.88552 56.1046 3.71348 56.1154 3.53762C56.0825 3.2604 55.6555 3.16799 55.4548 2.99796C55.2476 2.81363 55.0054 2.67403 54.7431 2.58767C54.6362 2.53412 54.5174 2.50971 54.3984 2.51684C54.2793 2.52397 54.1642 2.56239 54.0643 2.62833C54.005 2.69929 53.9608 2.78186 53.9344 2.8709C53.908 2.95993 53.9001 3.05352 53.911 3.14581C53.9099 3.33073 53.9447 3.51407 54.0132 3.68547C54.0819 3.85791 54.2122 3.9978 54.3781 4.07728" fill="#263238"/>
<path d="M31.8985 13.2844C31.8985 13.2844 35.5955 14.6557 37.5188 15.4837L37.4093 13.569L32.0335 11.4141C32.0335 11.4141 31.8949 12.8371 31.8985 13.2844Z" fill="#EBEBEB"/>
<path d="M32.2461 10.3086C33.1395 10.5888 34.0136 10.9284 34.8628 11.3251C35.7402 11.6637 36.5938 12.0626 37.4175 12.519C36.5242 12.2388 35.65 11.8992 34.8008 11.5025C33.9234 11.1639 33.0698 10.765 32.2461 10.3086Z" fill="#EBEBEB"/>
<path d="M33.3597 50.6416L33.075 41.582C33.075 41.582 34.8523 49.8728 44.1624 49.7656C53.0563 49.6621 52.8957 42.4617 52.8957 42.4617L53.2133 46.1137V60.8655L47.4105 84.932L39.9982 85.8708L31.8086 52.974L33.3597 50.6416Z" fill="#018762"/>
<path d="M52.0673 47.7449C52.0397 47.813 52.0042 47.8776 51.9615 47.9371C51.8501 48.1192 51.7283 48.2945 51.5965 48.462C51.1284 49.0857 50.5698 49.634 49.9396 50.0884C49.0045 50.7662 47.956 51.2672 46.8448 51.5669C45.4836 51.9368 44.0645 52.036 42.666 51.8589C41.2733 51.6646 39.9189 51.2519 38.6515 50.6354C37.623 50.137 36.6451 49.5378 35.7318 48.8464C35.114 48.3873 34.5218 47.8937 33.9582 47.3679C33.7574 47.1831 33.6114 47.0279 33.5093 46.9244C33.4548 46.8758 33.4059 46.8212 33.3633 46.7617C33.4252 46.8009 33.4827 46.8467 33.5348 46.8985L34.0093 47.3125C34.418 47.6821 35.0238 48.1737 35.8121 48.7466C36.7299 49.4163 37.7074 49.9979 38.7318 50.4839C39.9843 51.0822 41.3196 51.4836 42.6916 51.6741C44.0647 51.8486 45.458 51.7571 46.7974 51.4043C47.8921 51.1164 48.9293 50.6387 49.863 49.9923C50.4901 49.5535 51.0539 49.0285 51.5381 48.4324C51.8885 47.9889 52.0527 47.7338 52.0673 47.7449Z" fill="#263238"/>
<path d="M45.6082 125.093L45.4732 82.3269L33.4807 51.1266L33.0792 41.7344L25.7801 47.3305C25.7801 47.3305 15.1489 84.3931 14.9701 83.1142C14.7913 81.8353 14.9701 125.093 14.9701 125.093H45.6082Z" fill="#EBEBEB"/>
<path d="M45.3208 124.977C45.2701 124.977 45.2266 115.34 45.2266 103.453C45.2266 91.5659 45.2701 81.9297 45.3208 81.9297C45.3716 81.9297 45.4151 91.5659 45.4151 103.453C45.4151 115.34 45.3716 124.977 45.3208 124.977Z" fill="#263238"/>
<path d="M25.8789 53.4219L27.3606 54.5603L26.3205 61.4798L43.8239 80.0499L27.9263 58.9035L29.2803 53.4219H25.8789Z" fill="#E0E0E0"/>
<path d="M46.2654 103.186L19.401 95.2091L18.5105 74.5432L25.879 47.3164C25.879 47.3164 8.31733 56.1912 7.12027 61.8465C5.92322 67.5018 3.04371 81.2224 2.7408 91.1469C2.46708 100.018 2.42694 105.932 4.42689 108.782C10.1567 116.891 47.9077 118.34 62.9877 108.782" fill="#EBEBEB"/>
<path d="M44.1639 80.4954C44.1639 80.4954 44.131 80.4658 44.0763 80.3956C44.0215 80.3253 43.9339 80.2182 43.8354 80.0925L42.923 78.9097C42.1274 77.8673 40.9924 76.374 39.5946 74.5333L28.6714 60.0549L27.8503 58.9461L27.8211 58.9091V58.8647C28.2882 56.9722 28.7444 55.1352 29.1787 53.3832L29.2663 53.5014H25.8649H25.7773V53.4127C25.7773 51.195 25.7773 49.125 25.7773 47.3065V47.2695L25.8065 47.2473L31.0875 43.1814L32.5473 42.0725L32.9123 41.7879C32.9537 41.7532 32.999 41.7234 33.0473 41.6992L32.9268 41.8064L32.5619 42.1058L31.1349 43.2369L25.8941 47.3545L25.9233 47.2954C25.9233 49.114 25.9233 51.1654 25.9233 53.4016L25.8357 53.3166H29.2371H29.3831L29.3539 53.4349L28.0036 58.9165L27.9853 58.8352L28.8101 59.9256L39.6859 74.4409L42.9705 78.8505C43.3354 79.368 43.6456 79.7709 43.8537 80.0555C43.9485 80.1886 44.0215 80.2958 44.0799 80.3734L44.1639 80.4954Z" fill="#263238"/>
<path d="M56.1364 45.7011C53.9941 41.9087 52.881 42.3006 52.881 42.3006L52.9941 43.6534V46.4958L51.9759 58.6935L45.4688 85.1921L45.6038 125.09H70.2055L73.2674 76.3876L72.9901 55.4038L56.1364 45.7011Z" fill="#EBEBEB"/>
<path d="M72.9954 55.4062C72.9954 55.4062 79.3639 60.1671 79.9296 67.8295C80.3785 74.0503 81.3894 91.0864 81.5901 94.7938C81.8821 100.567 77.4406 114.092 65.8788 110.263C58.9446 107.964 33.332 99.148 33.332 99.148L35.0364 88.1294L65.4372 89.9776L66.043 64.2958L72.9954 55.4062Z" fill="#EBEBEB"/>
<path d="M34.6791 89.3995C34.6791 89.3995 26.0734 88.4569 24.0954 88.9449C22.1793 89.4143 19.4531 91.7873 19.4531 91.7873L19.4933 95.2285L33.3361 99.1503L34.6791 89.3995Z" fill="#B78876"/>
<path d="M45.4727 81.2084C45.4821 81.1677 45.4956 81.1281 45.5128 81.0902C45.542 81.0051 45.5858 80.8905 45.6405 80.7501C45.761 80.4396 45.9361 80.0108 46.1551 79.449L48.0821 74.6734L50.9579 67.5987C51.2316 66.9371 51.5017 66.2459 51.8411 65.5695C52.1805 64.8931 52.5491 64.2166 52.936 63.5402C53.7748 62.1611 54.686 60.8285 55.6658 59.5482C56.1622 58.9014 56.6622 58.2693 57.1804 57.6631V57.7629L56.1074 55.0018L56.0709 54.9094L56.1622 54.8761L60.6402 53.3422L60.5927 53.4679C58.5125 49.949 56.7571 46.9772 55.5089 44.8703C54.8958 43.828 54.3702 42.9926 53.8119 42.6526C53.6016 42.5241 53.3725 42.4305 53.133 42.3753C53.048 42.3592 52.964 42.3382 52.8812 42.3125C52.967 42.3183 53.0523 42.3294 53.1367 42.3458C53.3848 42.391 53.6232 42.4798 53.8411 42.6082C54.1796 42.8311 54.4722 43.1186 54.7024 43.4546C55.0247 43.8912 55.3232 44.3453 55.5965 44.8149L60.7424 53.3828L60.7971 53.4753L60.6949 53.5085L56.2169 55.0647L56.2717 54.9427L57.3483 57.7038L57.3702 57.7555L57.33 57.7999C56.8191 58.3987 56.3191 59.0308 55.8264 59.6776C54.8504 60.9488 53.9416 62.2714 53.1039 63.64C52.7134 64.3127 52.3302 64.9744 52.009 65.6508C51.6878 66.3272 51.4032 66.9999 51.1295 67.6653C50.0346 70.3192 49.0419 72.7107 48.2098 74.7252C47.3777 76.7396 46.6989 78.3438 46.2281 79.4749C45.9945 80.0256 45.8084 80.4581 45.6807 80.7649C45.6186 80.9053 45.5712 81.0125 45.5311 81.0975C45.5166 81.137 45.497 81.1743 45.4727 81.2084Z" fill="#263238"/>
<path d="M76.4882 108.124C76.4572 108.166 76.4217 108.204 76.3824 108.238L76.0539 108.56C75.6218 108.96 75.1539 109.319 74.6562 109.632C73.8628 110.121 73.0017 110.487 72.1015 110.718C70.9087 111.017 69.6726 111.098 68.4519 110.955C67.7401 110.871 67.0376 110.72 66.3534 110.504C65.6235 110.275 64.9228 109.99 64.1637 109.724C62.6637 109.17 61.0506 108.615 59.3572 107.994C55.9632 106.789 52.2224 105.503 48.2808 104.191C40.3978 101.57 33.2082 99.3596 27.9966 97.7813L21.8216 95.9332L20.1428 95.4268L19.7085 95.2937C19.6582 95.2798 19.6094 95.2613 19.5625 95.2383L19.7158 95.2716L20.1537 95.3898L21.8435 95.8593C23.3033 96.2732 25.4237 96.8831 28.0477 97.6519C33.2666 99.1933 40.4562 101.385 48.3502 104.01C52.2953 105.318 56.0361 106.597 59.4266 107.824C61.12 108.434 62.7294 109.014 64.2294 109.572C64.9812 109.846 65.6892 110.134 66.4191 110.363C67.0933 110.58 67.7861 110.732 68.4884 110.818C69.6976 110.968 70.9234 110.899 72.1088 110.615C73.0056 110.392 73.866 110.04 74.6635 109.569C75.161 109.263 75.6323 108.916 76.0722 108.53L76.4116 108.223C76.4346 108.188 76.4603 108.155 76.4882 108.124Z" fill="#263238"/>
<path d="M19.4762 95.2877C19.4762 95.3283 18.9908 95.2211 18.2207 95.2544C17.7707 95.2731 17.3245 95.3476 16.8923 95.4762C16.3648 95.6364 15.8613 95.869 15.396 96.1674C14.5555 96.729 13.8446 97.4679 13.3121 98.3334C12.907 98.9988 12.7282 99.4423 12.6953 99.4423C12.7148 99.3285 12.7492 99.2179 12.7975 99.1133C12.9079 98.8192 13.0422 98.5349 13.199 98.2632C13.7104 97.3527 14.4285 96.5786 15.2938 96.0047C15.7748 95.6972 16.2972 95.4619 16.8449 95.3061C17.2923 95.1835 17.7536 95.1202 18.2171 95.1176C18.5282 95.1133 18.8388 95.1418 19.1441 95.2026C19.2581 95.2154 19.3699 95.244 19.4762 95.2877Z" fill="#263238"/>
<path d="M11.0117 92.5929C11.0117 92.5929 11.0117 92.556 11.0446 92.4931C11.0882 92.4049 11.1448 92.3239 11.2124 92.2529C11.473 91.9944 11.8078 91.8262 12.1686 91.7723C12.6906 91.6853 13.2232 91.6853 13.7452 91.7723C14.3839 91.8576 15.0116 92.0125 15.6175 92.2344C16.7255 92.6287 17.7373 93.2589 18.5845 94.0825C18.8371 94.3344 19.0678 94.6077 19.2743 94.8994C19.3545 95.0029 19.4219 95.1158 19.475 95.2358C19.4422 95.2617 19.1429 94.7886 18.4933 94.1824C17.6367 93.4063 16.637 92.8096 15.5518 92.4266C14.9596 92.2117 14.3486 92.0545 13.727 91.9572C13.2211 91.8648 12.7044 91.8498 12.1942 91.9128C11.8546 91.9522 11.5338 92.0909 11.2708 92.312C11.0884 92.471 11.0263 92.6003 11.0117 92.5929Z" fill="#263238"/>
<path d="M21.039 68.8661C20.9796 68.6847 20.938 68.4977 20.9149 68.308C20.8601 68.1306 20.7835 67.9199 20.6996 67.6759C20.6156 67.432 20.4696 67.1659 20.3018 66.8849C19.909 66.2232 19.4504 65.6039 18.9332 65.0368C18.2931 64.3481 17.5905 63.7219 16.8347 63.1665C15.4625 62.1506 13.9023 61.4253 12.2472 61.0337C11.7436 60.9257 11.2322 60.8589 10.718 60.8341C10.5286 60.8352 10.3394 60.8204 10.1523 60.7898C10.3409 60.7627 10.5314 60.7528 10.7217 60.7602C11.242 60.7543 11.7617 60.8014 12.2727 60.9007C13.9611 61.2573 15.5542 61.9771 16.9442 63.0112C17.7122 63.5707 18.4215 64.2086 19.0609 64.9148C19.5813 65.4954 20.0366 66.1326 20.4185 66.8147C20.5828 67.1067 20.6886 67.3913 20.7835 67.6316C20.8784 67.8718 20.9295 68.1047 20.9733 68.2858C21.0095 68.4773 21.0314 68.6713 21.039 68.8661Z" fill="#263238"/>
<path d="M72.0399 100.457C72.0354 100.413 72.0354 100.368 72.0399 100.324V99.9358C72.0399 99.5958 72.0143 99.0968 71.9669 98.4573C71.8345 96.6409 71.4664 94.85 70.872 93.131C70.6932 92.5615 70.4482 92.0155 70.1421 91.5046C69.8007 90.9605 69.3044 90.5339 68.7188 90.2811C67.4962 89.7489 66.0254 89.8191 64.5291 89.7341L54.7337 89.3164C46.639 88.9468 39.4384 88.6511 34.9129 88.4071L34.975 88.3554C34.7012 90.0409 34.4823 91.3752 34.3326 92.303C34.256 92.7503 34.1976 93.0977 34.1538 93.3454C34.1356 93.4562 34.1173 93.545 34.1064 93.6152L34.0845 93.7039C34.0812 93.6732 34.0812 93.6422 34.0845 93.6115L34.121 93.3417C34.1538 93.094 34.2049 92.7429 34.267 92.2919C34.4056 91.3642 34.6027 90.0261 34.8545 88.3369V88.2852H34.9093L54.73 89.1205L64.5254 89.5678C65.2773 89.6047 66.0108 89.6232 66.7152 89.6823C67.4172 89.7219 68.1079 89.8793 68.7589 90.1481C69.3721 90.4089 69.8936 90.8507 70.2553 91.4159C70.5641 91.9384 70.8092 92.4969 70.9852 93.0792C71.5715 94.8092 71.9202 96.6126 72.0216 98.4388C72.0618 99.082 72.0618 99.5847 72.0581 99.9173C72.0581 100.08 72.0581 100.209 72.0581 100.305C72.0435 100.409 72.0399 100.457 72.0399 100.457Z" fill="#263238"/>
<path d="M66.2427 76.3516C66.2934 76.3516 66.3369 79.3345 66.3369 83.0049C66.3369 86.6753 66.2934 89.6581 66.2427 89.6581C66.1919 89.6581 66.1484 86.6753 66.1484 83.0049C66.1484 79.3345 66.1919 76.3516 66.2427 76.3516Z" fill="#263238"/>
<path d="M7.33247 61.168C7.33247 61.168 7.31058 61.253 7.25948 61.4119C7.20839 61.5709 7.11715 61.8111 7.04051 62.1512C6.86168 62.7906 6.63541 63.7443 6.38359 64.9899C5.8763 67.4812 5.25222 71.1257 4.55881 75.6869C4.2121 77.9712 3.8289 80.4921 3.46394 83.1941C3.27781 84.5506 3.16103 85.9626 3.06614 87.4263C2.97125 88.89 2.89461 90.3834 2.83621 91.9506C2.72673 95.0591 2.66103 98.3414 2.74862 101.76C2.77781 102.614 2.80701 103.479 2.87635 104.348C2.89825 104.784 2.97124 105.213 3.02233 105.645C3.10028 106.078 3.20387 106.505 3.33255 106.924C3.59226 107.772 4.0029 108.565 4.54421 109.264C5.08702 109.974 5.80077 110.532 6.61716 110.883C8.35449 111.746 10.1661 112.446 12.0295 112.975C13.9163 113.548 15.8652 114.01 17.8432 114.42C22.1472 115.32 26.5172 115.859 30.9086 116.032C32.9891 116.086 35.0708 116.032 37.1457 115.869C39.1786 115.725 41.1603 115.5 43.0763 115.222C46.6892 114.704 50.2502 113.865 53.7184 112.716C56.6881 111.723 59.5674 110.471 62.3241 108.976V109.098L50.5506 104.858L47.3718 103.708L46.5507 103.405C46.3645 103.335 46.2733 103.294 46.2733 103.294L46.5543 103.387L47.3828 103.671L50.5725 104.78L62.3971 108.957L62.5394 109.005L62.408 109.079C59.6463 110.587 56.7609 111.85 53.7841 112.853C50.3085 114.013 46.7388 114.86 43.1164 115.385C41.1968 115.677 39.2114 115.895 37.1749 116.039C35.0941 116.204 33.0062 116.261 30.9196 116.209C26.5171 116.039 22.136 115.5 17.8213 114.598C15.836 114.184 13.8834 113.722 11.982 113.149C10.1078 112.613 8.28537 111.907 6.53686 111.038C5.68635 110.676 4.94228 110.098 4.37633 109.36C3.82283 108.642 3.40354 107.828 3.13912 106.957C3.00674 106.531 2.9007 106.096 2.82161 105.656C2.76687 105.213 2.69753 104.777 2.67563 104.34C2.60629 103.468 2.5771 102.6 2.55155 101.753C2.46396 98.323 2.55155 95.0407 2.65374 91.9284C2.71213 90.376 2.7912 88.8666 2.89095 87.4005C2.98949 85.9219 3.10993 84.5174 3.2997 83.1608C3.66466 80.4441 4.05151 77.9343 4.39457 75.6537C5.12449 71.0925 5.75951 67.4516 6.2887 64.964C6.55147 63.7184 6.78504 62.7648 6.97482 62.1253C7.05511 61.8037 7.15729 61.5672 7.20838 61.4082C7.25948 61.2493 7.33247 61.168 7.33247 61.168Z" fill="#263238"/>
<path d="M19.4336 92.7308C23.9262 87.6928 23.7291 78.7367 21.1489 72.3828C20.9117 79.2653 20.1088 85.3715 19.4956 92.0618" fill="#E0E0E0"/>
<path d="M21.1592 73.6719C21.1671 73.7456 21.1671 73.8199 21.1592 73.8937C21.1592 74.06 21.1373 74.2633 21.119 74.522C21.0752 75.0949 21.0168 75.8785 20.9402 76.8322C20.7796 78.806 20.5752 81.4858 20.3234 84.4502L19.7322 92.0719C19.6629 93.0256 19.6045 93.8092 19.5607 94.3821L19.5059 95.0068C19.5016 95.0801 19.4918 95.153 19.4767 95.2249C19.4661 95.1526 19.4661 95.0791 19.4767 95.0068C19.4767 94.8405 19.4767 94.6372 19.495 94.3747C19.5132 93.8277 19.5534 93.0367 19.6045 92.0609C19.7176 90.1092 19.9001 87.4109 20.141 84.4354C20.3818 81.4599 20.6227 78.769 20.8161 76.8211C20.9147 75.8675 20.9949 75.0875 21.0533 74.5146C21.0862 74.2596 21.1117 74.0526 21.13 73.89C21.1299 73.8163 21.1397 73.7429 21.1592 73.6719Z" fill="#263238"/>
<path d="M32.2349 64.5703C32.3305 65.8702 32.3619 67.1742 32.3292 68.4773C32.3618 69.7804 32.3304 71.0843 32.2349 72.3842C32.1841 72.3842 32.1406 70.6322 32.1406 68.4773C32.1406 66.3223 32.1841 64.5703 32.2349 64.5703Z" fill="#263238"/>
<path d="M29.3047 77.553C29.3811 78.3086 29.6685 79.0266 30.1331 79.6229C30.5565 80.1811 31.4141 80.7318 32.1039 80.6837C32.6236 80.7106 33.1413 80.6004 33.6064 80.3639C34.0714 80.1274 34.4679 79.7728 34.7571 79.3346C35.5965 77.9818 35.8046 75.1615 35.1221 73.4945C34.6586 72.3486 33.6185 71.2767 32.3959 71.2508C30.7901 71.2139 29.7828 72.3893 29.4397 73.5795" fill="#E0E0E0"/>
<path d="M29.4467 73.5742C29.4997 73.293 29.5997 73.023 29.7423 72.7758C29.9012 72.4787 30.1043 72.2082 30.3445 71.9737C30.6662 71.6614 31.0564 71.4309 31.4831 71.301C31.7306 71.2242 31.9872 71.1819 32.2459 71.1753C32.5288 71.1597 32.8122 71.1973 33.0816 71.2862C33.6694 71.4968 34.1858 71.8724 34.5706 72.3692C35.0048 72.9056 35.3064 73.5392 35.4502 74.2173C35.6016 74.9372 35.6557 75.6746 35.6107 76.4092C35.5377 77.5662 35.3115 78.7194 34.6801 79.5991C34.3662 80.0124 33.9474 80.3318 33.4685 80.5232C33.033 80.7 32.5649 80.7795 32.0962 80.756C31.754 80.7591 31.4165 80.6752 31.1145 80.5121C30.8488 80.3715 30.6033 80.1949 30.3846 79.9872C30.041 79.6404 29.7682 79.2284 29.5817 78.7748C29.4567 78.4886 29.3708 78.1864 29.3263 77.8766C29.3139 77.7959 29.3066 77.7144 29.3044 77.6327C29.2996 77.6046 29.2996 77.5758 29.3044 77.5477C29.3786 77.9577 29.5012 78.3573 29.6693 78.7379C29.8643 79.1722 30.1393 79.5648 30.4795 79.8948C30.6998 80.0902 30.9454 80.2544 31.2094 80.3827C31.4913 80.5301 31.8046 80.605 32.1218 80.6008C32.5841 80.6241 33.0453 80.5357 33.4673 80.3429C33.8893 80.15 34.26 79.8584 34.5487 79.4919C35.1363 78.6676 35.3626 77.5329 35.4319 76.4018C35.5122 74.9233 35.2677 73.467 34.4465 72.4838C34.0794 72.0123 33.5887 71.655 33.0305 71.4525C32.7777 71.3678 32.512 71.329 32.2459 71.3379C31.9989 71.3407 31.7535 71.3767 31.516 71.4451C31.108 71.5643 30.7331 71.7782 30.4211 72.0698C30.1825 72.2909 29.9772 72.5462 29.8116 72.8275C29.6762 73.0693 29.5544 73.3186 29.4467 73.5742Z" fill="#263238"/>
<path d="M28.4531 77.6265C28.5302 78.382 28.8175 79.0998 29.2816 79.6964C29.7013 80.2545 30.5626 80.8053 31.2523 80.7572C31.772 80.7837 32.2895 80.6733 32.7545 80.4369C33.2195 80.2004 33.6161 79.846 33.9056 79.4081C34.745 78.0515 34.953 75.235 34.2705 73.568C33.807 72.4184 32.7669 71.3502 31.5443 71.3243C30.8651 71.3185 30.2039 71.5448 29.6674 71.9667C29.131 72.3886 28.7507 72.9814 28.5882 73.6493" fill="#E0E0E0"/>
<path d="M28.5982 73.6485C28.6516 73.3686 28.7516 73.0999 28.8938 72.8538C29.0526 72.5567 29.2557 72.2862 29.4959 72.0517C30.0076 71.5522 30.6868 71.2671 31.3974 71.2533C31.6803 71.238 31.9636 71.2756 32.2331 71.3642C32.8209 71.5748 33.3373 71.9504 33.7221 72.4472C34.1566 72.983 34.4571 73.6169 34.598 74.2954C34.7526 75.0148 34.8079 75.7525 34.7623 76.4873C34.6893 77.6442 34.463 78.7937 33.8316 79.6772C33.5177 80.0905 33.0989 80.4099 32.62 80.6012C32.1845 80.7781 31.7164 80.8575 31.2477 80.8341C30.9052 80.836 30.5676 80.7509 30.266 80.5864C29.9997 80.4484 29.754 80.2729 29.5361 80.0653C29.1904 79.7188 28.9173 79.3052 28.7332 78.8492C28.6083 78.5642 28.5223 78.2632 28.4777 77.9547C28.4777 77.8475 28.4558 77.7662 28.4522 77.7107C28.4482 77.6825 28.4482 77.6539 28.4522 77.6257C28.5268 78.0345 28.6493 78.4328 28.8171 78.8122C29.0097 79.249 29.285 79.6433 29.6273 79.9729C29.8476 80.1683 30.0932 80.3324 30.3572 80.4608C30.6397 80.6065 30.9526 80.6813 31.2696 80.6789C31.7314 80.7015 32.1919 80.6128 32.6132 80.42C33.0345 80.2273 33.4045 79.9359 33.6929 79.57C34.2842 78.742 34.5104 77.6109 34.5798 76.4799C34.6601 75.0014 34.4156 73.545 33.5944 72.5618C33.2331 72.0865 32.7458 71.725 32.1893 71.5195C31.9377 71.4348 31.6733 71.396 31.4083 71.4049C30.731 71.4154 30.0812 71.6786 29.5835 72.1441C29.3449 72.3652 29.1396 72.6205 28.9741 72.9019C28.8334 73.1425 28.7079 73.3919 28.5982 73.6485Z" fill="#263238"/>
<path d="M30.0035 73.2338C29.5986 73.1818 29.1879 73.2652 28.8341 73.4714C28.4803 73.6776 28.2028 73.9952 28.0437 74.376C27.7406 75.1513 27.7406 76.0144 28.0437 76.7896C28.1692 77.1912 28.3769 77.5615 28.6532 77.8763C28.9346 78.1935 29.3278 78.3859 29.748 78.4123C30.0522 78.395 30.3478 78.304 30.61 78.1471C30.8723 77.9902 31.0936 77.7718 31.2553 77.5104C31.5377 77.1033 31.7299 76.6392 31.8187 76.1499C31.9076 75.6606 31.8909 75.1576 31.7699 74.6754C31.602 74.0322 31.1349 73.378 30.4816 73.3595" fill="#E0E0E0"/>
<path d="M30.4758 73.3588C30.4758 73.3588 30.5269 73.3588 30.6218 73.3588C30.7625 73.3751 30.8981 73.4217 31.0196 73.4956C31.2348 73.6408 31.4192 73.8281 31.5621 74.0464C31.705 74.2648 31.8034 74.5098 31.8517 74.7671C32.0298 75.5254 31.95 76.3224 31.6254 77.0292C31.4433 77.4528 31.1629 77.8256 30.8079 78.1159C30.617 78.2826 30.3897 78.4007 30.1446 78.4605C29.8996 78.5203 29.6441 78.52 29.3992 78.4597C28.9211 78.3054 28.5191 77.9723 28.2751 77.5282C28.0512 77.1307 27.8934 76.6986 27.808 76.2493C27.7167 75.8739 27.702 75.4836 27.7647 75.1023C27.8275 74.721 27.9664 74.3566 28.1729 74.0315C28.3209 73.8168 28.5092 73.6338 28.7272 73.493C28.9451 73.3521 29.1884 73.2563 29.443 73.2109C29.5821 73.1901 29.7235 73.1901 29.8627 73.2109C29.9539 73.2294 30.0014 73.2442 30.0014 73.2516C29.8195 73.2452 29.6374 73.2564 29.4576 73.2849C28.9765 73.3979 28.5561 73.6928 28.2824 74.1091C28.0934 74.4232 27.9691 74.7727 27.917 75.1367C27.865 75.5007 27.8862 75.8717 27.9795 76.2271C28.0647 76.6551 28.2188 77.0659 28.4357 77.4432C28.656 77.8444 29.0187 78.1457 29.4503 78.2859C29.6666 78.3394 29.8923 78.3399 30.1088 78.2871C30.3253 78.2344 30.5262 78.1301 30.6948 77.9828C31.026 77.7098 31.2907 77.3633 31.4685 76.9701C31.7844 76.2981 31.8729 75.5394 31.7203 74.8114C31.6435 74.3189 31.382 73.8754 30.9904 73.5732C30.8335 73.4701 30.659 73.3974 30.4758 73.3588Z" fill="#263238"/>
<path d="M31.8418 79.3111C31.8126 79.3111 31.7724 79.1928 31.6483 79.0449C31.4812 78.8547 31.2651 78.7152 31.0243 78.6421C30.7748 78.5694 30.5173 78.5284 30.2579 78.5201C30.0572 78.5201 29.9258 78.4868 29.9258 78.4609C29.9258 78.4351 30.0499 78.4055 30.2579 78.3833C30.5349 78.3534 30.8151 78.3785 31.0827 78.4572C31.3615 78.5385 31.6015 78.7198 31.7578 78.9673C31.871 79.1595 31.8637 79.3074 31.8418 79.3111Z" fill="#263238"/>
<path d="M32.1316 72.7344C32.1316 72.7344 32.0732 72.8637 31.9053 73.0005C31.6796 73.1753 31.4153 73.292 31.1352 73.3405C30.8558 73.3921 30.5684 73.3769 30.2958 73.2962C30.0915 73.226 29.982 73.1446 29.9929 73.1225C30.3551 73.1797 30.7231 73.1896 31.0878 73.152C31.4514 73.0569 31.802 72.9166 32.1316 72.7344Z" fill="#263238"/>
<path d="M57.207 46.2539C57.207 46.2539 57.2508 46.2539 57.3275 46.2983C57.4389 46.3486 57.5473 46.4054 57.6523 46.4683C58.0436 46.6924 58.4105 46.9575 58.7472 47.2593C59.8694 48.2604 60.685 49.5662 61.0975 51.0221C61.5294 52.4521 61.8287 53.9197 61.9916 55.4059C62.0573 55.9751 62.0902 56.4372 62.1121 56.755C62.1304 56.9209 62.1304 57.0882 62.1121 57.254C62.071 57.0929 62.0441 56.9284 62.0318 56.7624C61.9843 56.4113 61.9223 55.9603 61.8529 55.4244C61.651 53.9526 61.3349 52.4991 60.9077 51.0775C60.5017 49.6543 59.7223 48.3692 58.6523 47.3591C58.1981 46.955 57.7151 46.5856 57.207 46.2539Z" fill="#263238"/>
<path d="M52.6585 86.9427C53.7168 86.9021 54.5635 85.8339 55.6219 85.893C55.8136 85.9095 56.0002 85.9641 56.1711 86.0536C56.342 86.1432 56.4938 86.2659 56.6178 86.4149C56.7419 86.5639 56.8357 86.7361 56.894 86.9218C56.9523 87.1075 56.9739 87.303 56.9576 87.4972C56.9414 87.6913 56.8875 87.8803 56.799 88.0534C56.7106 88.2265 56.5894 88.3802 56.4423 88.5058C56.2953 88.6314 56.1252 88.7265 55.9418 88.7855C55.7585 88.8446 55.5654 88.8665 55.3737 88.85C54.2606 88.7206 53.611 87.4011 52.5234 87.1497" fill="#263238"/>
<path d="M61.627 87.8541C61.2957 87.8535 60.965 87.8263 60.638 87.7728L60.6964 87.4031C62.0029 87.6138 63.1014 87.4031 63.9591 86.7563C65.0539 85.9542 65.7364 84.5163 66.0284 82.4834V82.4058C66.1488 81.6 66.313 65.791 66.313 62.7896C66.313 58.099 62.2511 57.4596 62.0759 57.4337C61.9007 57.4078 58.2183 56.7795 56.2585 61.8988C54.2074 67.2621 50.9265 77.5969 50.7112 78.8093C50.682 78.9571 50.6418 79.1419 50.598 79.3526C50.255 80.9051 49.5469 84.1319 51.671 85.9875C54.0396 88.0611 55.9081 87.259 55.9848 87.2257L56.1344 87.5621C56.0468 87.599 53.9885 88.5046 51.4338 86.2684C49.1418 84.265 49.8827 80.894 50.2404 79.2713C50.2878 79.0643 50.3243 78.9017 50.3498 78.7427C50.5688 77.523 53.8607 67.1438 55.9191 61.7657C57.9774 56.3877 62.0941 57.0604 62.1233 57.0715C62.1525 57.0826 66.6634 57.7738 66.6634 62.7896C66.6634 65.2624 66.5028 81.6037 66.3751 82.4612V82.5351C66.0685 84.6716 65.324 86.1908 64.1598 87.0557C63.4228 87.5919 62.5342 87.872 61.627 87.8541Z" fill="#263238"/>
<path d="M66.5118 65.8128C66.3501 65.1622 66.0942 64.5395 65.7527 63.9647C65.3644 63.3582 64.8769 62.8232 64.3111 62.3826C63.6146 61.85 62.815 61.4721 61.9644 61.2738C60.4024 60.9256 58.7693 61.1413 57.3477 61.8837C56.7671 62.205 56.2268 62.596 55.7383 63.048C55.7613 63.0074 55.7896 62.9702 55.8222 62.9371C55.9056 62.8314 55.9971 62.7325 56.0959 62.6414C56.4507 62.2968 56.8496 62.0021 57.2821 61.7654C58.724 60.966 60.4035 60.7243 62.0082 61.0853C62.8846 61.2949 63.7062 61.6933 64.4169 62.2533C64.9986 62.7097 65.4933 63.2696 65.8768 63.9055C66.1335 64.3315 66.3231 64.7954 66.4388 65.2805C66.4732 65.4117 66.4988 65.5451 66.5154 65.6797C66.5154 65.761 66.5191 65.8128 66.5118 65.8128Z" fill="#263238"/>
<path d="M75.8041 95.3644C75.6694 94.8293 75.5012 94.3033 75.3005 93.7898C74.7818 92.5647 73.922 91.5192 72.8261 90.781C72.2126 90.4011 71.53 90.1497 70.8188 90.0418C70.2324 89.9494 69.6416 89.8877 69.0488 89.8569L67.8481 89.7719C67.7005 89.7679 67.5537 89.748 67.4102 89.7128C67.5568 89.6947 67.7051 89.6947 67.8517 89.7128L69.0561 89.735C69.6545 89.7484 70.2517 89.7978 70.8444 89.8828C71.5821 89.9803 72.2917 90.2321 72.9283 90.6221C74.0563 91.3784 74.9277 92.4674 75.4246 93.7418C75.5765 94.1219 75.6891 94.5171 75.7603 94.9209C75.7942 95.0661 75.8089 95.2153 75.8041 95.3644Z" fill="#263238"/>
<path d="M57.3906 89.1963C57.3906 89.1963 60.9818 83.6925 61.8978 82.9717C62.8139 82.2509 70.6568 78.6656 71.5655 79.2422C72.4743 79.8188 71.9305 81.0681 71.9305 81.0681C71.9305 81.0681 75.2443 79.8927 75.5983 80.3547C75.7887 80.6326 75.8907 80.9628 75.8907 81.301C75.8907 81.6392 75.7887 81.9694 75.5983 82.2473C75.5983 82.2473 77.4231 81.9626 77.4231 82.5356C77.4158 82.9203 77.3155 83.2973 77.1309 83.6337C76.9464 83.97 76.6833 84.2555 76.3647 84.465C75.518 85.1082 70.0108 88.8192 69.5692 89.8468L67.7846 89.7359L57.3906 89.1963Z" fill="#B78876"/>
<path d="M67.7227 87.6205C67.7632 87.4983 67.8183 87.3816 67.8869 87.273C68.0617 86.9721 68.2594 86.6854 68.4781 86.4155C69.212 85.5291 70.0925 84.7786 71.0802 84.1977C72.0628 83.6156 73.0934 83.1209 74.1605 82.7192C74.5656 82.5603 74.8904 82.442 75.1276 82.3496C75.2447 82.3005 75.3673 82.2657 75.4925 82.2461C75.3878 82.3195 75.2736 82.378 75.1531 82.4198L74.2079 82.8301C73.1659 83.2619 72.1539 83.7645 71.1788 84.3345C70.2087 84.9077 69.3322 85.6297 68.5803 86.4746C68.011 87.1584 67.7555 87.639 67.7227 87.6205Z" fill="#AA6550"/>
<path d="M63.168 87.5322C63.2105 87.3914 63.2693 87.2561 63.3432 87.1293C63.4672 86.8742 63.6461 86.5083 63.8942 86.0647C64.1805 85.5435 64.5114 85.0488 64.8833 84.5862C65.1039 84.3049 65.3562 84.0506 65.6351 83.8285C65.938 83.6215 66.2555 83.4293 66.5876 83.2297C67.7099 82.5523 68.8811 81.9616 70.0912 81.4629C70.4579 81.316 70.8333 81.1926 71.2152 81.0933C71.3557 81.0522 71.5001 81.0262 71.6459 81.0156C71.6459 81.0489 71.051 81.1894 70.1423 81.6033C68.9549 82.1363 67.7996 82.7399 66.6825 83.4108C66.354 83.6067 66.0365 83.8026 65.7409 83.9985C65.4722 84.2081 65.2273 84.4473 65.011 84.7119C64.6369 85.1637 64.3 85.6459 64.0037 86.1535L63.3979 87.181C63.3339 87.3061 63.2568 87.4238 63.168 87.5322Z" fill="#AA6550"/>
</svg>
